<?xml version="1.0" standalone="no"?>
<!DOCTYPE svg PUBLIC "-//W3C//DTD SVG 1.1//EN" "http://www.w3.org/Graphics/SVG/1.1/DTD/svg11.dtd" >
<svg xmlns="http://www.w3.org/2000/svg" xmlns:xlink="http://www.w3.org/1999/xlink" version="1.1">
<metadata>
Created by FontForge 20170910 at Tue Apr 12 13:41:42 1994
 By Jimmy Wärting
URW Software, Copyright 1994 by URW
</metadata>
<defs>
<font id="CastleT-Ultr" horiz-adv-x="702" >
  <font-face 
    font-family="CastleTUlt"
    font-weight="400"
    font-stretch="normal"
    units-per-em="2048"
    panose-1="2 14 9 2 5 9 6 3 2 4"
    ascent="1700"
    descent="-348"
    x-height="1140"
    cap-height="1365"
    bbox="-246 -514 2606 1899"
    underline-thickness="250"
    underline-position="-329"
    unicode-range="U+0020-F002"
  />
<missing-glyph 
d="M70 0v1365h562v-1365h-562zM562 70v1225h-422v-1225h422z" />
    <glyph glyph-name=".notdef" 
d="M70 0v1365h562v-1365h-562zM562 70v1225h-422v-1225h422z" />
    <glyph glyph-name="glyph1" horiz-adv-x="0" 
 />
    <glyph glyph-name="glyph2" 
 />
    <glyph glyph-name="space" unicode=" " 
 />
    <glyph glyph-name="exclam" unicode="!" horiz-adv-x="751" 
d="M200 477l-54 820q-4 48 -16 68h491q-12 -19 -16 -68l-52 -820h-353zM374 423q116 0 179 -68q55 -59 55 -151q0 -91 -55 -150q-63 -68 -178 -68q-116 0 -176 68q-55 62 -55 153q0 97 63 156t167 60z" />
    <glyph glyph-name="quotedbl" unicode="&#x22;" horiz-adv-x="781" 
d="M356 1365l-55 -546h-137l-55 546h247zM672 1365l-56 -546h-136l-56 546h248z" />
    <glyph glyph-name="numbersign" unicode="#" horiz-adv-x="1202" 
d="M1116 567l-29 -205h-157l-51 -362h-300l51 362h-137l-51 -362h-300l51 362h-171l29 205h170l36 256h-170l29 205h170l48 337h300l-47 -337h136l47 337h301l-48 -337h157l-28 -205h-157l-36 -256h157zM694 823h-136l-36 -256h136z" />
    <glyph glyph-name="dollar" unicode="$" horiz-adv-x="1202" 
d="M490 1374v169h205v-157q157 -3 342 -83l-58 -259q-199 141 -311 141q-61 0 -101 -32.5t-40 -83.5q0 -65 65 -99q32 -17 176 -73q190 -74 259 -156q84 -100 84 -260q0 -112 -42 -213t-115 -166q-93 -83 -259 -116v-184h-205v175q-100 3 -179.5 25t-219.5 84l69 276
q111 -94 185.5 -130.5t153.5 -36.5q83 0 131 37.5t48 103.5q0 53 -30 80t-137 71q-154 63 -213 96t-98 77q-98 110 -98 270q0 222 172 355q83 64 216 89z" />
    <glyph glyph-name="percent" unicode="%" horiz-adv-x="1837" 
d="M442 1389q152 0 260 -95q121 -108 121 -281q0 -75 -32.5 -148t-88.5 -122q-50 -45 -120 -71.5t-140 -26.5q-144 0 -255 97q-119 103 -119 275q0 178 120 278q109 92 254 94zM443 1233q-98 0 -98 -216q0 -103 26.5 -159.5t73.5 -56.5q46 0 73.5 59.5t27.5 161.5
q0 98 -27.5 154t-75.5 57zM523 0l600 1365h191l-600 -1365h-191zM1388 719q152 0 259 -95q122 -108 122 -281q0 -74 -32.5 -147t-88.5 -122q-50 -45 -120.5 -71.5t-139.5 -26.5q-144 0 -255 96q-119 104 -119 276q0 177 120 277q109 92 254 94zM1389 563q-98 0 -98 -216
q0 -102 26.5 -158.5t73.5 -56.5q46 0 73.5 59.5t27.5 160.5q0 98 -27.5 154t-75.5 57z" />
    <glyph glyph-name="ampersand" unicode="&#x26;" horiz-adv-x="1336" 
d="M765 52q-141 -75 -306 -75q-191 0 -301 102q-117 109 -117 268q0 82 38 160t100 126q67 52 203 111q-50 83 -66 128.5t-16 103.5q0 146 104 235t273 89q144 0 227 -70q90 -75 90 -203q0 -84 -34.5 -149t-115.5 -134l158 -248q103 126 156 248l158 -204
q-90 -128 -194 -231l152 -241q28 -43 56 -68h-538zM490 560q-47 -41 -47 -120q0 -88 54 -153.5t126 -65.5q30 0 50 14zM733 912q41 47 52 68t11 48q0 33 -17 54.5t-42 21.5q-23 0 -39 -21t-16 -51q0 -41 51 -120z" />
    <glyph glyph-name="quotesingle" unicode="'" horiz-adv-x="466" 
d="M356 1365l-55 -546h-137l-55 546h247z" />
    <glyph glyph-name="parenleft" unicode="(" horiz-adv-x="819" 
d="M507 1571l128 -121q-42 -171 -56 -238q-60 -289 -60 -556q0 -195 25.5 -372.5t90.5 -435.5l-128 -121q-107 97 -169 175t-113 181q-136 273 -136 571q0 345 173 630q85 141 245 287z" />
    <glyph glyph-name="parenright" unicode=")" horiz-adv-x="819" 
d="M285 1571q182 -166 274 -338q144 -268 144 -579q0 -326 -159 -614q-85 -155 -259 -313l-128 121q36 141 49 201q67 311 67 607q0 189 -23.5 348.5t-92.5 445.5z" />
    <glyph glyph-name="asterisk" unicode="*" horiz-adv-x="700" 
d="M154 849l-113 187l202 54l-202 50l113 183l143 -137l-58 193h221l-51 -194l138 138l112 -183l-205 -50l205 -66l-112 -175l-138 148l51 -200h-221l66 199z" />
    <glyph glyph-name="plus" unicode="+" horiz-adv-x="1201" 
d="M476 558h-341v250h341v327h250v-327h341v-250h-341v-327h-250v327z" />
    <glyph glyph-name="comma" unicode="," horiz-adv-x="655" 
d="M249 424l314 -151l-287 -573l-259 123z" />
    <glyph glyph-name="hyphen" unicode="-" horiz-adv-x="551" 
d="M0 446l83 306h468l-81 -306h-470z" />
    <glyph glyph-name="period" unicode="." horiz-adv-x="655" 
d="M326 423q116 0 179 -68q55 -59 55 -151q0 -91 -55 -150q-63 -68 -178 -68q-116 0 -176 68q-55 62 -55 153q0 96 63 155.5t167 60.5z" />
    <glyph glyph-name="slash" unicode="/" horiz-adv-x="1051" 
d="M-14 -250l719 1615h261l-719 -1615h-261z" />
    <glyph glyph-name="zero" unicode="0" horiz-adv-x="1202" 
d="M587 1390q223 0 333 -67q66 -41 117.5 -112t76.5 -155q38 -129 38 -359q0 -299 -57 -436q-63 -152 -180.5 -219t-323.5 -67q-199 0 -310 69q-67 41 -120 112.5t-77 154.5q-34 117 -34 348q0 309 51 441q40 103 114 175q64 63 146.5 88t225.5 27zM601 1196
q-35 0 -58.5 -35t-27.5 -93q-5 -63 -6 -385q5 -368 10 -417q5 -45 27.5 -71t56.5 -26t56.5 26.5t26.5 72.5q4 40 7 450q-3 286 -9 357q-15 120 -83 121z" />
    <glyph glyph-name="one" unicode="1" horiz-adv-x="1201" 
d="M412 1030l-203 -88v161q-1 47 -14 65l682 221q-12 -28 -13 -72v-1249q1 -37 13 -68h-479q13 25 14 69v961z" />
    <glyph glyph-name="two" unicode="2" horiz-adv-x="1202" 
d="M124 251q172 104 291 247q180 215 180 446q0 105 -45 161q-51 65 -143 65q-102 0 -233 -66l-32 233q236 53 416 53q124 0 210.5 -27t150.5 -86q120 -111 120 -284q0 -150 -97 -304q-70 -112 -167 -195.5t-279 -191.5h457q54 0 67.5 2.5t32.5 14.5v-319h-944q14 24 15 68
v183z" />
    <glyph glyph-name="three" unicode="3" horiz-adv-x="1202" 
d="M167 277q80 -54 132.5 -74.5t110.5 -20.5q83 0 134 57t51 152q0 99 -40 158t-107 59q-26 0 -68 -9v237q40 -6 62 -6q66 0 106 47.5t40 126.5q0 83 -47.5 131t-129.5 48q-83 0 -220 -75l-24 221q174 61 364 61q232 0 362 -91q139 -98 139 -278q0 -111 -53 -180t-175 -118
q103 -24 161 -80q94 -91 94 -239q0 -194 -143 -313q-73 -61 -171 -88.5t-240 -27.5q-110 0 -193.5 16t-196.5 59z" />
    <glyph glyph-name="four" unicode="4" horiz-adv-x="1201" 
d="M544 248h-493v286q19 18 47 60l461 703q31 48 35 68h418q-12 -25 -13 -68v-751h83q46 1 69 11v-315q-22 6 -80 6h-72v-180q1 -42 13 -68h-481q12 25 13 68v180zM304 546h255v377z" />
    <glyph glyph-name="five" unicode="5" horiz-adv-x="1201" 
d="M107 51l74 231q138 -86 239 -86q86 0 132 71.5t46 205.5q0 90 -27 137q-33 59 -95 59q-49 0 -94 -54l-174 79q10 30 11 80v513q-1 48 -11 78h778v-313q-41 13 -77 13h-474v-223q97 74 215 74q165 0 274 -102q130 -120 130 -341q0 -141 -42.5 -238.5t-131.5 -161.5
q-138 -98 -361 -98q-200 0 -412 76z" />
    <glyph glyph-name="six" unicode="6" horiz-adv-x="1201" 
d="M540 887q49 43 94.5 59.5t113.5 16.5q174 0 273 -112q108 -124 108 -355q0 -269 -154 -404q-70 -62 -155 -89.5t-206 -27.5q-190 0 -293 58q-140 79 -200 238q-48 126 -48 324q0 529 356 719q144 76 346 76q51 0 124 -7l46 -208q-82 25 -142 25q-72 0 -132 -32.5
t-95 -89.5q-33 -54 -36 -191zM526 628q-10 -119 -10 -173q0 -155 21.5 -225.5t69.5 -70.5q51 0 73.5 72t22.5 235q0 269 -92 269q-34 0 -55 -35q-8 -12 -18.5 -38.5t-11.5 -33.5z" />
    <glyph glyph-name="seven" unicode="7" horiz-adv-x="1201" 
d="M773 1038l-546 -9q-56 -1 -88 -10v346h916v-300q-21 -20 -33 -46l-440 -951q-19 -43 -19 -68h-406q28 24 54 68z" />
    <glyph glyph-name="eight" unicode="8" horiz-adv-x="1201" 
d="M866 748q141 -30 198.5 -110t57.5 -245q0 -121 -23.5 -190.5t-82.5 -120.5q-68 -59 -158.5 -83t-242.5 -24q-172 0 -266 23.5t-163 83.5q-58 51 -82 117.5t-24 174.5q0 165 43 241q29 52 72 79t140 54q-83 16 -125 48q-88 66 -88 225q0 182 115 274q62 50 148 72.5
t215 22.5q130 0 216 -22.5t148 -72.5q115 -92 115 -275q0 -168 -98 -233q-38 -24 -115 -39zM600 1211q-43 0 -59 -46.5t-16 -170.5q0 -102 15 -143q18 -47 59 -47q22 0 40.5 16.5t25.5 43.5q11 41 11 130q0 125 -16 170.5t-60 46.5zM600 617q-44 0 -60 -47.5t-16 -180.5
q0 -122 8 -162q14 -66 67 -66q57 0 71 66q8 43 8 147q0 145 -15.5 193.5t-62.5 49.5z" />
    <glyph glyph-name="nine" unicode="9" horiz-adv-x="1201" 
d="M663 478q-49 -43 -94.5 -59.5t-113.5 -16.5q-174 0 -273 112q-108 124 -108 355q0 269 154 404q69 62 154.5 89.5t205.5 27.5q190 0 293 -58q140 -79 200 -238q48 -126 48 -324q0 -529 -356 -719q-143 -76 -346 -76q-51 0 -124 7l-45 208q81 -25 141 -25q72 0 132 32.5
t95 89.5q33 54 37 191zM676 737q10 118 10 173q0 155 -21.5 225.5t-68.5 70.5q-51 0 -73.5 -72.5t-22.5 -234.5q0 -269 92 -269q34 0 55 35q7 12 18 38.5t11 33.5z" />
    <glyph glyph-name="colon" unicode=":" horiz-adv-x="655" 
d="M326 1140q116 0 179 -68q55 -59 55 -151q0 -91 -55 -150q-63 -68 -178 -68q-116 0 -176 68q-55 62 -55 153q0 96 63 155.5t167 60.5zM326 423q116 0 179 -68q55 -59 55 -151q0 -91 -55 -150q-63 -68 -178 -68q-116 0 -176 68q-55 62 -55 153q0 96 63 155.5t167 60.5z" />
    <glyph glyph-name="semicolon" unicode=";" horiz-adv-x="655" 
d="M249 424l314 -151l-287 -573l-259 123zM356 1140q116 0 179 -68q55 -59 55 -150q0 -92 -55 -151q-63 -68 -178 -68q-116 0 -176 68q-55 62 -55 153q0 97 63 156t167 60z" />
    <glyph glyph-name="less" unicode="&#x3c;" horiz-adv-x="1024" 
d="M955 1391v-445l-415 -253l413 -253l2 -442l-887 511v372z" />
    <glyph glyph-name="equal" unicode="=" horiz-adv-x="1201" 
d="M135 749v250h932v-250h-932zM135 367v250h932v-250h-932z" />
    <glyph glyph-name="greater" unicode="&#x3e;" horiz-adv-x="1024" 
d="M68 -2v445l415 253l-412 253l-3 442l888 -511v-372z" />
    <glyph glyph-name="question" unicode="?" horiz-adv-x="819" 
d="M120 1085v218q142 86 309 86q143 0 228 -65q97 -75 97 -190q0 -47 -15 -89t-61 -125q-90 -161 -90 -194q0 -45 51 -45q27 0 59 20v-166q-150 -71 -272 -71q-119 0 -213 73q-82 63 -82 165q0 62 21.5 115.5t100.5 185.5q39 66 39 99q0 25 -17 42.5t-41 17.5
q-48 0 -114 -77zM388 423q116 0 179 -68q55 -59 55 -151q0 -91 -55 -150q-63 -68 -178 -68q-116 0 -176 68q-55 62 -55 153q0 96 63 155.5t167 60.5z" />
    <glyph glyph-name="at" unicode="@" horiz-adv-x="1525" 
d="M844 1004l4 38h312q-16 -24 -20 -50l-46 -441q-1 -7 -5 -48q-2 -14 -2 -24q0 -30 29 -30t68 29t66 72q76 118 76 258q0 188 -141 326q-154 149 -378 149q-170 0 -312 -91q-137 -87 -208 -235q-61 -126 -61 -271q0 -225 139 -392q172 -208 459 -208q192 0 356 96l53 -94
q-189 -115 -424 -115q-243 0 -436 136q-152 107 -231 273q-68 142 -68 302q0 301 216 505q91 86 208 138q148 65 311 65q273 0 465 -169q92 -81 143 -188q53 -110 53 -226q0 -176 -113 -316q-67 -84 -164 -130.5t-204 -46.5q-118 0 -186 54q-68 -54 -171 -54
q-248 0 -248 312q0 217 112 345q78 90 203 90q94 0 145 -59zM785 910q-39 0 -61 -89q-9 -38 -18 -121t-9 -132q0 -87 41 -87q26 0 40 23.5t24 86.5q24 140 24 226q0 51 -9 71.5t-32 21.5z" />
    <glyph glyph-name="A" unicode="A" horiz-adv-x="1279" 
d="M311 345l-96 -277q-12 -35 -12 -52q0 -4 3 -16h-247q23 24 39 68l429 1229q13 36 13 53q0 4 -2 15h387q-1 -9 -1 -12q0 -16 14 -56l439 -1229q17 -44 43 -68h-526q2 12 2 16q0 20 -10 52l-90 277h-385zM384 551h244l-119 395z" />
    <glyph glyph-name="B" unicode="B" horiz-adv-x="1252" 
d="M98 1365h708q172 0 270 -90q95 -88 95 -258q0 -182 -111 -254q-35 -22 -120 -51q110 -25 169 -83q85 -85 85 -245q0 -224 -153 -322q-98 -62 -231 -62h-712q13 26 14 69v1228q-1 46 -14 68zM573 777h38q64 0 89.5 45t25.5 158q0 99 -28 144.5t-90 45.5h-35v-393zM573 191
h50q56 0 82 44t26 140q0 113 -24.5 161.5t-81.5 48.5h-52v-394z" />
    <glyph glyph-name="C" unicode="C" horiz-adv-x="1219" 
d="M1192 1320v-293q-192 152 -341 152q-147 0 -231 -130t-84 -359q0 -136 24 -230t76 -160q41 -53 101.5 -83t123.5 -30q140 0 331 145v-283q-199 -74 -423 -74q-363 0 -540 182q-174 180 -174 538q0 242 83 383q57 97 155 171q96 73 220.5 107t298.5 34q203 0 380 -70z" />
    <glyph glyph-name="D" unicode="D" horiz-adv-x="1436" 
d="M98 1365h577q706 0 706 -671q0 -342 -179 -528q-161 -166 -408 -166h-696q13 26 14 68v1229q-1 46 -14 68zM573 206h52q136 0 200 111q75 130 75 363q0 252 -95 386q-30 42 -80.5 67t-107.5 25h-44v-952z" />
    <glyph glyph-name="E" unicode="E" horiz-adv-x="1044" 
d="M98 1365h875v-200q-33 9 -71 9h-329v-392h327q47 0 73 8v-208q-26 9 -71 9h-329v-385h318q56 0 82 9v-215h-875q13 25 14 68v1229q-1 45 -14 68z" />
    <glyph glyph-name="F" unicode="F" horiz-adv-x="972" 
d="M98 1365h857v-202q-30 11 -70 11h-312v-393h239q48 0 81 8v-209q-29 9 -67 10h-253v-522q1 -42 13 -68h-488q13 28 14 68v1230q-1 41 -14 67z" />
    <glyph glyph-name="G" unicode="G" horiz-adv-x="1365" 
d="M1241 1323v-285q-160 144 -348 144q-160 0 -251 -114q-56 -70 -81 -169t-25 -253q0 -232 62 -354q62 -124 186 -124q35 0 63 21v493q-1 46 -14 69h469q-13 -26 -14 -69v-516q0 -45 2 -58t12 -42q-194 -57 -294 -74t-246 -17q-215 0 -349 59q-358 158 -358 623
q0 370 237 567q114 96 249 132q130 34 285 34q200 0 415 -67z" />
    <glyph glyph-name="H" unicode="H" horiz-adv-x="1458" 
d="M573 594v-526q1 -46 14 -68h-489q13 22 14 68v1229q-1 45 -14 68h489q-13 -29 -14 -68v-497h312v497q-1 37 -14 68h489q-13 -23 -14 -68v-1229q1 -46 14 -68h-489q13 23 14 68v526h-312z" />
    <glyph glyph-name="I" unicode="I" 
d="M106 1365h489q-13 -24 -14 -68v-1229q1 -44 14 -68h-489q13 24 14 68v1229q-1 44 -14 68z" />
    <glyph glyph-name="J" unicode="J" horiz-adv-x="688" 
d="M-134 -295l104 216q55 -30 87 -30q37 0 48 19.5t11 88.5v1298q-1 44 -14 68h489q-13 -20 -14 -68v-1298q0 -347 -420 -347q-146 0 -291 53z" />
    <glyph glyph-name="K" unicode="K" horiz-adv-x="1256" 
d="M573 563v-495q1 -44 14 -68h-489q13 24 14 68v1229q-1 45 -14 68h489q-13 -24 -14 -68v-543l313 543q20 36 27 68h344q-29 -25 -55 -68l-289 -490l354 -738q21 -43 46 -69h-539q-1 25 -17 69z" />
    <glyph glyph-name="L" unicode="L" horiz-adv-x="941" 
d="M954 0h-856q13 24 14 68v1229q-1 44 -14 68h488q-12 -24 -13 -68v-1091h285q68 1 96 15v-221z" />
    <glyph glyph-name="M" unicode="M" horiz-adv-x="1744" 
d="M329 752l-80 -684q-1 -8 -1 -16q0 -25 12 -52h-253q17 24 24 68l172 1229q3 22 3 40q0 7 -3 28h407q-2 -13 -2 -18q0 -20 10 -50l256 -777l259 777q12 36 12 55q0 4 -1 13h397q-3 -21 -3 -28q0 -14 3 -40l162 -1229q7 -44 25 -68h-492q2 21 2 28q0 16 -2 40l-66 684
l-229 -684q-11 -32 -11 -53q0 -4 1 -15h-367q1 9 1 13q0 18 -12 55z" />
    <glyph glyph-name="N" unicode="N" horiz-adv-x="1421" 
d="M317 809v-741q1 -44 14 -68h-234q13 26 14 68v1229q-1 46 -14 68h395q5 -25 38 -69l576 -756v756q-1 43 -14 69h233q-10 -13 -12 -23t-2 -45v-1228q0 -33 14 -69h-401q-8 25 -40 69z" />
    <glyph glyph-name="O" unicode="O" horiz-adv-x="1565" 
d="M782 1390q303 0 490 -138q238 -175 238 -569q0 -366 -206 -544q-191 -164 -539 -164q-238 0 -378 72q-182 93 -266 284q-66 150 -66 365q0 112 27.5 223t74.5 186q175 281 625 285zM782 1198q-127 0 -186.5 -122t-59.5 -384t56 -392q56 -132 191 -132q127 0 186.5 122
t59.5 385q0 266 -56 392q-57 128 -191 131z" />
    <glyph glyph-name="P" unicode="P" horiz-adv-x="1208" 
d="M573 494v-426q0 -28 18 -68h-493q13 27 14 68v1228q-1 46 -14 69h617q116 0 189 -18t136 -61q154 -107 154 -345q0 -244 -156 -354q-74 -51 -156.5 -72t-214.5 -21h-94zM573 699h34q71 0 96 49.5t25 189.5q0 134 -29 185q-28 49 -87 49h-39v-473z" />
    <glyph glyph-name="Q" unicode="Q" horiz-adv-x="1566" 
d="M1415 -106l-368 -239q-156 115 -258 177t-347 192q-122 65 -178.5 110.5t-97.5 111.5q-112 181 -112 438q0 262 116 440q102 157 316 223q142 43 300 43q191 0 352 -63q210 -83 305 -304q68 -158 68 -348q0 -334 -187 -513q-96 -93 -273 -149q164 -71 364 -119zM787 1197
q-134 0 -193 -122t-59 -397q0 -250 56 -380q57 -132 191 -132q129 0 188.5 122t59.5 385q0 274 -57 396.5t-186 127.5z" />
    <glyph glyph-name="R" unicode="R" horiz-adv-x="1268" 
d="M575 595v-527q1 -42 14 -68h-491q13 20 14 68v1229q-1 41 -14 68h685q188 0 299 -98q114 -99 114 -285q0 -125 -48 -205t-164 -148l251 -561q20 -43 44 -68h-531q1 8 1 10q0 17 -13 58zM573 733h32q125 0 125 214q0 231 -114 231h-43v-445z" />
    <glyph glyph-name="S" unicode="S" horiz-adv-x="1075" 
d="M27 88l69 274q74 -59 110 -83q118 -81 240 -81q75 0 119 35q50 38 50 102q0 69 -62 106q-26 15 -196 85q-185 76 -251 173q-69 102 -69 233q0 136 72 246q138 212 478 212q197 0 388 -85l-59 -260q-188 142 -317 142q-59 0 -96.5 -33t-37.5 -85q0 -55 38.5 -81t228.5 -99
q195 -75 260 -185q55 -92 55 -218q0 -155 -70 -278q-133 -233 -494 -233q-125 0 -225.5 25t-230.5 88z" />
    <glyph glyph-name="T" unicode="T" horiz-adv-x="1057" 
d="M-19 1365h1095v-235q-37 11 -74 11h-245v-1073q1 -44 14 -68h-489q13 23 14 68v1073h-224q-43 0 -91 -11v235z" />
    <glyph glyph-name="U" unicode="U" horiz-adv-x="1394" 
d="M1317 1365q-13 -29 -14 -68v-808q0 -197 -104 -324q-156 -190 -509 -190q-279 0 -435 133q-82 69 -119 165.5t-37 239.5v784q-1 43 -14 68h489q-13 -27 -14 -68v-818q0 -140 63 -207q70 -76 196 -76q98 0 177 55q53 37 77 96.5t24 153.5v796q-1 46 -14 68h234z" />
    <glyph glyph-name="V" unicode="V" horiz-adv-x="1162" 
d="M-61 1365h523q-7 -22 -7 -32q0 -13 7 -36l245 -832l266 831q7 23 7 37q0 10 -7 32h251q-23 -25 -38 -68l-387 -1229q-11 -34 -11 -53q0 -4 1 -15h-433q2 14 2 18q0 18 -10 50l-374 1228q-14 43 -35 69z" />
    <glyph glyph-name="W" unicode="W" horiz-adv-x="1748" 
d="M875 783l-181 -714q-6 -23 -6 -37q0 -10 6 -32h-411q6 22 6 32q0 12 -6 37l-303 1228q-12 43 -28 68h501q-5 -22 -5 -32q0 -11 5 -36l146 -719l202 719q7 24 7 37q0 10 -7 31h403q-6 -20 -6 -28q0 -16 6 -40l170 -719l179 719q6 25 6 40q0 8 -6 28h242q-19 -25 -31 -68
l-304 -1229q-6 -24 -6 -40q0 -7 6 -28h-428q5 22 5 32q0 12 -5 36z" />
    <glyph glyph-name="X" unicode="X" horiz-adv-x="1123" 
d="M343 660l-304 636q-21 43 -44 69h534q-1 -7 -1 -9q0 -20 18 -59l145 -309l174 309q24 43 28 68h257q-28 -24 -54 -68l-301 -520l338 -708q24 -50 44 -69h-535q0 25 -20 68l-174 368l-212 -367q-25 -44 -26 -69h-265q38 31 60 68z" />
    <glyph glyph-name="Y" unicode="Y" horiz-adv-x="1047" 
d="M290 565l-312 732q-18 42 -39 68h524q-3 -13 -3 -16q0 -18 13 -52l177 -444l192 444q16 37 16 59q0 2 -1 9h251q-20 -26 -39 -68l-318 -723v-505q1 -46 14 -69h-489q13 24 14 68v497z" />
    <glyph glyph-name="Z" unicode="Z" horiz-adv-x="1147" 
d="M34 0v217l550 942h-449q-65 -1 -101 -13v219h1079v-221l-544 -938h459q59 1 85 11v-217h-1079z" />
    <glyph glyph-name="bracketleft" unicode="[" horiz-adv-x="819" 
d="M541 1278v-1259h204q37 0 74 11v-235h-688q13 23 14 68v1571q-1 45 -14 68h688v-235q-37 11 -74 11h-204z" />
    <glyph glyph-name="backslash" unicode="\" horiz-adv-x="1051" 
d="M1065 -250h-261l-719 1615h261z" />
    <glyph glyph-name="bracketright" unicode="]" horiz-adv-x="819" 
d="M279 1278h-205q-37 0 -74 -11v235h689q-13 -23 -14 -68v-1571q1 -45 14 -68h-689v235q37 -11 74 -11h205v1259z" />
    <glyph glyph-name="asciicircum" unicode="^" horiz-adv-x="1024" 
d="M387 671h-388l266 706h494l266 -706h-387l-125 405z" />
    <glyph glyph-name="underscore" unicode="_" horiz-adv-x="1024" 
d="M0 -79h1024v-250h-1024v250z" />
    <glyph glyph-name="grave" unicode="`" horiz-adv-x="1024" 
d="M461 1253l-247 372h295l137 -372h-185z" />
    <glyph glyph-name="a" unicode="a" horiz-adv-x="1122" 
d="M596 72q-60 -52 -116 -72t-141 -20q-76 0 -125 18.5t-89 63.5q-92 101 -92 261q0 165 100 261q47 46 104 72t195 66q75 22 108.5 54t33.5 83q0 53 -41.5 84.5t-110.5 31.5q-68 0 -122 -20t-133 -75l-45 225q223 69 446 69q440 0 440 -306v-571q0 -58 48 -58q23 0 58 28
v-205q-83 -51 -133.5 -66.5t-134.5 -15.5q-87 0 -143.5 21t-106.5 71zM574 588q-67 -35 -103 -94.5t-36 -137.5q0 -49 21 -78.5t56 -29.5q62 0 62 74v266z" />
    <glyph glyph-name="b" unicode="b" horiz-adv-x="1223" 
d="M534 1103q109 71 223 71q178 0 283 -133q125 -158 125 -446q0 -262 -100 -424q-68 -111 -166 -156q-78 -35 -201 -35q-108 0 -173 36.5t-118 127.5l-100 -144h-221q13 20 14 68v1336q-1 42 -14 68h462q-13 -23 -14 -68v-301zM624 942q-57 3 -78.5 -78.5t-21.5 -297.5
q0 -202 21.5 -283.5t75.5 -81.5q57 0 78.5 79t21.5 288q0 212 -20.5 291.5t-76.5 82.5z" />
    <glyph glyph-name="c" unicode="c" horiz-adv-x="1028" 
d="M981 31q-174 -52 -317 -52q-265 0 -425 144q-180 161 -180 446q0 295 196 463q165 142 422 142q132 0 304 -48v-256q-80 65 -124.5 85t-106.5 20q-236 0 -236 -385q0 -402 232 -402q107 0 235 87v-244z" />
    <glyph glyph-name="d" unicode="d" horiz-adv-x="1225" 
d="M701 86q-56 -58 -113 -82t-138 -24q-137 0 -218 76q-83 77 -128 217t-45 320q0 277 117 440q101 141 287 141q137 0 228 -80v310q-1 44 -14 68h462q-13 -26 -14 -68v-1336q1 -39 14 -68h-438v86zM613 953q-56 0 -77.5 -79.5t-21.5 -288.5q0 -186 20 -284q17 -79 78 -79
q56 0 77.5 79.5t21.5 285.5q0 207 -21 285.5t-77 80.5z" />
    <glyph glyph-name="e" unicode="e" horiz-adv-x="1217" 
d="M1117 79q-127 -59 -217 -79.5t-219 -20.5q-205 0 -332 64q-290 145 -290 514q0 294 166 466q148 153 416 153q222 0 340 -94q101 -79 145.5 -198.5t44.5 -310.5v-34h-660q3 -147 32 -224q26 -72 85.5 -112t139.5 -40q84 0 156 34t154 113zM516 733h197q-4 93 -11 145
q-14 113 -88 113q-50 0 -73 -60t-25 -198z" />
    <glyph glyph-name="f" unicode="f" horiz-adv-x="714" 
d="M106 949h-75v191h75v86q0 121 64 180q98 89 317 89q151 0 330 -52l-68 -187q-74 40 -124 40q-85 0 -85 -96v-60h217v-191h-217v-881q1 -41 14 -68h-462q13 23 14 69v880z" />
    <glyph glyph-name="g" unicode="g" horiz-adv-x="1230" 
d="M147 -162l-82 294l180 135q-102 68 -144 154t-42 226q0 185 59 289q73 128 221 191q104 44 228 44q31 0 113 -8q61 74 61 179q0 7 -1 22h350q-13 -82 -36.5 -128t-96.5 -130q229 -143 229 -444q0 -278 -219 -410q-113 -69 -236 -72q-76 -2 -95.5 -6t-53.5 -23l-176 -98
q230 45 291 54t141 9q182 0 291 -63q44 -26 70 -70.5t26 -94.5q0 -62 -38 -113.5t-105 -79.5q-146 -62 -377 -62q-121 0 -237 18.5t-321 69.5v43q181 -45 332 -45q177 0 177 77q0 43 -53.5 69t-141.5 26q-145 0 -314 -53zM620 964q-55 0 -78.5 -65.5t-23.5 -218.5
q0 -124 14 -203q8 -44 33 -71.5t58 -27.5q57 0 80.5 69t23.5 236q0 151 -24.5 215t-82.5 66z" />
    <glyph glyph-name="h" unicode="h" horiz-adv-x="1247" 
d="M86 0q13 25 14 68v1336q-1 46 -14 68h462q-13 -22 -14 -68v-344q123 114 290 114q72 0 138.5 -23.5t106.5 -62.5q71 -71 71 -217v-803q1 -39 14 -68h-462q13 23 14 68v695q0 115 -81 115q-42 0 -66.5 -28.5t-24.5 -77.5v-704q1 -42 14 -68h-462z" />
    <glyph glyph-name="i" unicode="i" horiz-adv-x="647" 
d="M321 1455q211 0 211 -126q0 -138 -209 -138q-214 0 -214 131q0 132 212 133zM93 1140h462q-13 -25 -14 -68v-1004q1 -40 14 -68h-462q13 26 14 68v1004q-1 46 -14 68z" />
    <glyph glyph-name="j" unicode="j" horiz-adv-x="656" 
d="M340 1455q211 0 211 -126q0 -138 -209 -138q-214 0 -214 131q0 132 212 133zM-98 -270l76 177q57 -42 98 -42q28 0 49 18t21 42q0 11 -8 33q-15 47 -15 81v1032q-1 45 -14 69h462q-13 -24 -14 -71v-1083q0 -85 -17.5 -134.5t-61.5 -88.5q-101 -89 -283 -89
q-147 0 -293 56z" />
    <glyph glyph-name="k" unicode="k" horiz-adv-x="1167" 
d="M534 500v-432q1 -41 14 -68h-462q13 24 14 68v1336q-1 45 -14 68h462q-13 -24 -14 -68v-741l239 409q25 43 28 68h344q-27 -26 -57 -68l-207 -307l289 -697q19 -44 44 -68h-509q1 24 -15 68z" />
    <glyph glyph-name="l" unicode="l" horiz-adv-x="634" 
d="M548 1472q-13 -23 -14 -68v-1336q1 -41 14 -68h-462q13 25 14 68v1336q-1 44 -14 68h462z" />
    <glyph glyph-name="m" unicode="m" horiz-adv-x="1835" 
d="M524 1039q118 135 297 135q175 0 277 -135q66 63 126 90q96 45 204 45q140 0 220.5 -81t80.5 -222v-803q1 -41 14 -68h-462q13 25 14 68v708q0 102 -75 102q-88 0 -88 -93v-717q1 -44 14 -68h-462q13 25 14 68v711q0 99 -74 99q-83 0 -83 -103v-707q1 -43 14 -68h-462
q13 26 14 68v1004q-1 46 -14 68h431v-101z" />
    <glyph glyph-name="n" unicode="n" horiz-adv-x="1251" 
d="M93 1140h434v-95q119 129 308 129q166 0 252 -103q57 -70 57 -209v-794q1 -39 14 -68h-462q13 23 14 68v699q0 61 -17 86t-58 25q-44 0 -69 -30t-25 -82v-698q1 -43 14 -68h-462q13 24 14 68v1004q-1 44 -14 68z" />
    <glyph glyph-name="o" unicode="o" horiz-adv-x="1236" 
d="M624 1174q253 0 394 -143q159 -162 159 -455q0 -307 -179 -472q-70 -64 -161.5 -94t-218.5 -30q-126 0 -213 28t-160 91q-186 161 -186 484q0 194 75 334q71 133 189.5 194.5t300.5 62.5zM618 990q-59 0 -81.5 -89t-22.5 -323q0 -214 22 -325q17 -89 82 -89
q59 0 81.5 89.5t22.5 321.5q0 236 -22 324.5t-82 90.5z" />
    <glyph glyph-name="p" unicode="p" horiz-adv-x="1219" 
d="M534 65v-297q1 -45 14 -68h-462q13 26 14 68v1304q-1 41 -14 68h437v-85q86 119 253 119q111 0 197 -63q188 -137 188 -548q0 -282 -103 -431q-50 -72 -131.5 -112t-179.5 -40q-137 0 -213 85zM612 934q-27 1 -49.5 -21.5t-28.5 -57.5q-9 -50 -14 -288q5 -232 14 -287
q6 -35 27.5 -57t49.5 -22q53 0 74 79.5t21 283.5q0 210 -20 288.5t-74 81.5z" />
    <glyph glyph-name="q" unicode="q" horiz-adv-x="1223" 
d="M690 52q-95 -72 -218 -72q-195 0 -310 161q-55 76 -79 170.5t-24 232.5q0 303 125 474q59 81 140 118.5t196 37.5q107 0 174 -35.5t124 -123.5l100 125h220q-13 -22 -14 -68v-1304q1 -41 14 -68h-462q13 23 14 68v284zM605 953q-58 3 -80 -79.5t-22 -301.5
q0 -184 21 -283q17 -80 80 -80q56 0 78 80t22 288q0 214 -21 293.5t-78 82.5z" />
    <glyph glyph-name="r" unicode="r" horiz-adv-x="791" 
d="M93 1140h436v-95q40 126 262 129v-308q-50 8 -85 8q-80 0 -122.5 -46t-42.5 -134v-625q1 -44 14 -69h-462q13 26 14 69v1003q-1 45 -14 68z" />
    <glyph glyph-name="s" unicode="s" horiz-adv-x="990" 
d="M31 77l61 243q67 -51 108 -76q121 -74 240 -74q53 0 87 26t34 67q0 68 -121 111q-133 47 -193.5 76t-100.5 65q-97 86 -97 246q0 137 74 237q68 90 186 135q110 41 233 41q163 0 378 -68l-55 -231q-90 65 -151 90t-131 25q-62 0 -97.5 -24.5t-35.5 -66.5q0 -47 60 -77
q15 -7 189 -64q142 -47 204 -139q57 -85 57 -214q0 -216 -144 -325q-133 -101 -373 -101q-111 0 -201 21.5t-211 76.5z" />
    <glyph glyph-name="t" unicode="t" horiz-adv-x="710" 
d="M114 949h-115v191h115v122l446 46q-12 -32 -12 -71v-97h145v-191h-145v-679q0 -69 61 -69q37 0 84 29v-199q-142 -51 -267 -51q-165 0 -252 75q-60 53 -60 162v732z" />
    <glyph glyph-name="u" unicode="u" horiz-adv-x="1251" 
d="M724 0v100q-75 -67 -144.5 -93.5t-167.5 -26.5q-157 0 -237 96q-37 45 -52.5 99t-15.5 140v757q-1 43 -14 68h462q-13 -22 -14 -68v-697q0 -99 84 -99q39 0 62 26.5t23 71.5v698q-1 44 -14 68h462q-13 -21 -14 -68v-1004q1 -37 14 -68h-434z" />
    <glyph glyph-name="v" unicode="v" horiz-adv-x="1007" 
d="M621 468l194 604q11 33 11 53q0 4 -2 15h241q-25 -24 -41 -68l-333 -1004q-11 -33 -11 -54q0 -4 1 -14h-356q1 9 1 11q0 19 -13 57l-336 1004q-15 43 -36 68h515q-6 -22 -6 -31q0 -15 6 -37z" />
    <glyph glyph-name="w" unicode="w" horiz-adv-x="1628" 
d="M585 527l156 545q6 22 6 37q0 9 -6 31h416q-7 -17 -6 -29q1 -18 6 -39l133 -545l154 545q7 25 7 36q0 10 -7 32h229q-20 -25 -33 -68l-280 -1004q-7 -25 -7 -36q0 -10 7 -32h-404q5 22 5 32q0 14 -5 36l-142 571l-159 -571q-9 -34 -9 -54q0 -4 1 -14h-377q1 11 1 16
q0 21 -9 54l-275 1002q-13 44 -32 68h493q-6 -22 -6 -32q0 -11 6 -36z" />
    <glyph glyph-name="x" unicode="x" horiz-adv-x="1027" 
d="M287 540l-267 532q-20 38 -48 68h519q-1 -25 21 -68l118 -229l137 229q25 43 25 68h250q-29 -24 -55 -68l-254 -441l286 -563q23 -44 47 -68h-522q1 24 -20 68l-135 273l-156 -273q-24 -43 -28 -68h-245q24 24 51 68z" />
    <glyph glyph-name="y" unicode="y" horiz-adv-x="1001" 
d="M373 -2l-406 1073q-17 43 -39 69h516q-1 -7 -1 -9q0 -21 13 -60l159 -481l179 482q15 44 16 68h251q-22 -25 -41 -68l-533 -1303q-17 -44 -17 -69h-262q22 24 45 68z" />
    <glyph glyph-name="z" unicode="z" horiz-adv-x="1081" 
d="M29 0v183l505 766h-411q-48 0 -94 -11v202h1014v-201l-491 -748h406q44 0 85 11v-202h-1014z" />
    <glyph glyph-name="braceleft" unicode="{" horiz-adv-x="819" 
d="M395 648q82 -38 111.5 -89t29.5 -156v-244q0 -79 17 -105q27 -39 122 -39q26 0 63 7v-224q-205 -4 -235 -4q-103 0 -161 14.5t-99 51.5q-76 66 -76 219v283q0 121 -21 158t-92 41v192q70 5 91.5 39t21.5 143v287q0 87 20 140t66 86q45 32 101.5 43.5t165.5 11.5
q58 0 218 -5v-234q-61 5 -91 5q-82 0 -101 -50q-10 -28 -10 -104v-223q0 -107 -28.5 -156t-112.5 -88z" />
    <glyph glyph-name="bar" unicode="|" horiz-adv-x="1024" 
d="M286 1365h451v-1706h-451v1706z" />
    <glyph glyph-name="braceright" unicode="}" horiz-adv-x="819" 
d="M424 648q-52 24 -73 39.5t-35 39.5q-33 61 -33 165v223q0 77 -10 104q-19 50 -101 50q-30 0 -91 -5v234q160 5 218 5q109 0 165.5 -11.5t101.5 -43.5q46 -33 66 -86t20 -140v-287q0 -109 21.5 -143t91.5 -39v-192q-71 -4 -92 -41t-21 -158v-283q0 -157 -75 -221t-261 -64
q-75 0 -235 5v223q36 -6 63 -6q102 0 126 47q13 25 13 97v243q0 105 29.5 156t111.5 89z" />
    <glyph glyph-name="asciitilde" unicode="~" horiz-adv-x="1365" 
d="M398 1075l-211 180q44 115 86 178q98 148 245 148q36 0 64.5 -7.5t160.5 -51.5q104 -36 127 -36q32 0 51.5 19t53.5 82l211 -179q-41 -103 -70 -153.5t-71 -93.5q-81 -83 -189 -83q-31 0 -63 9t-161 53q-105 36 -131 36q-50 0 -103 -101z" />
    <glyph glyph-name="Adieresis" unicode="&#xc4;" horiz-adv-x="1279" 
d="M311 345l-96 -277q-12 -35 -12 -52q0 -4 3 -16h-247q23 24 39 68l429 1229q13 36 13 53q0 4 -2 15h387q-1 -9 -1 -12q0 -16 14 -56l439 -1229q17 -44 43 -68h-526q2 12 2 16q0 20 -10 52l-90 277h-385zM384 551h244l-119 395zM380 1739q205 0 205 -125q0 -67 -41 -97
q-57 -41 -170 -41q-104 0 -158 33t-54 97q0 132 218 133zM885 1738q205 0 205 -125q0 -67 -41 -97q-57 -41 -170 -41q-104 0 -158 33t-54 97q0 132 218 133z" />
    <glyph glyph-name="Aring" unicode="&#xc5;" horiz-adv-x="1279" 
d="M311 345l-96 -277q-12 -35 -12 -52q0 -4 3 -16h-247q23 24 39 68l429 1229q13 36 13 53q0 4 -2 15h387q-1 -9 -1 -12q0 -16 14 -56l439 -1229q17 -44 43 -68h-526q2 12 2 16q0 20 -10 52l-90 277h-385zM384 551h244l-119 395zM624 1899q97 0 165 -68q66 -67 66 -162
t-67 -162t-163 -67t-160 67q-68 69 -68 164q0 93 66.5 160t160.5 68zM626 1771q-43 0 -74 -30t-31 -72q0 -43 30.5 -73t74.5 -30q45 0 76 29.5t31 72.5t-31 72.5t-76 30.5z" />
    <glyph glyph-name="Ccedilla" unicode="&#xc7;" horiz-adv-x="1219" 
d="M1192 1320v-293q-192 152 -341 152q-147 0 -231 -130t-84 -359q0 -136 24 -229.5t76 -160.5q41 -53 101.5 -83t123.5 -30q140 0 331 145v-283q-199 -74 -423 -74q-363 0 -540 182q-174 180 -174 538q0 242 83 383q57 97 155 171q96 73 220.5 107t298.5 34q204 0 380 -70z
M510 -409l80 305h284l-176 -305h-188z" />
    <glyph glyph-name="Eacute" unicode="&#xc9;" horiz-adv-x="1044" 
d="M98 1365h875v-200q-33 9 -71 9h-329v-392h327q47 0 73 8v-208q-26 9 -71 9h-329v-385h318q56 0 82 9v-215h-875q13 25 14 68v1229q-1 45 -14 68zM384 1468l143 370h298l-251 -370h-190z" />
    <glyph glyph-name="Ntilde" unicode="&#xd1;" horiz-adv-x="1421" 
d="M317 809v-741q1 -44 14 -68h-234q13 26 14 68v1229q-1 46 -14 68h395q5 -25 38 -69l576 -756v756q-1 43 -14 69h233q-10 -13 -12 -23t-2 -45v-1228q0 -33 14 -69h-401q-8 25 -40 69zM351 1522v223q126 43 204 43q77 0 200 -31q122 -31 172 -31q73 0 144 33v-218
q-97 -37 -162 -37q-37 0 -63 5t-146 34q-93 22 -168 22q-83 0 -181 -43z" />
    <glyph glyph-name="Odieresis" unicode="&#xd6;" horiz-adv-x="1565" 
d="M782 1390q303 0 490 -138q238 -175 238 -569q0 -366 -206 -544q-191 -164 -539 -164q-238 0 -378 72q-182 93 -266 284q-66 150 -66 365q0 112 27.5 223t74.5 186q175 281 625 285zM782 1198q-127 0 -186.5 -122t-59.5 -384t56 -392q56 -132 191 -132q127 0 186.5 122
t59.5 385q0 266 -56 392q-57 128 -191 131zM537 1739q205 0 205 -125q0 -67 -41 -97q-57 -41 -170 -41q-104 0 -158 33t-54 97q0 132 218 133zM1042 1738q205 0 205 -125q0 -67 -41 -97q-57 -41 -170 -41q-104 0 -158 33t-54 97q0 132 218 133z" />
    <glyph glyph-name="Udieresis" unicode="&#xdc;" horiz-adv-x="1394" 
d="M1317 1365q-13 -29 -14 -68v-808q0 -197 -104 -324q-156 -190 -509 -190q-279 0 -435 133q-82 69 -119 165.5t-37 239.5v784q-1 43 -14 68h489q-13 -27 -14 -68v-818q0 -140 63 -207q70 -76 196 -76q98 0 177 55q53 37 77 96.5t24 153.5v796q-1 46 -14 68h234zM506 1739
q205 0 205 -125q0 -67 -41 -97q-57 -41 -170 -41q-104 0 -158 33t-54 97q0 132 218 133zM1011 1738q205 0 205 -125q0 -67 -41 -97q-57 -41 -170 -41q-104 0 -158 33t-54 97q0 132 218 133z" />
    <glyph glyph-name="aacute" unicode="&#xe1;" horiz-adv-x="1122" 
d="M596 72q-60 -52 -116 -72t-141 -20q-76 0 -125 18.5t-89 63.5q-92 101 -92 261q0 165 100 261q47 46 104 72t195 66q75 22 108.5 54t33.5 83q0 53 -41.5 84.5t-110.5 31.5q-68 0 -122 -20t-133 -75l-45 225q223 69 446 69q440 0 440 -306v-571q0 -58 48 -58q23 0 58 28
v-205q-83 -51 -133.5 -66.5t-134.5 -15.5q-87 0 -143.5 21t-106.5 71zM574 588q-67 -35 -103 -94.5t-36 -137.5q0 -49 21 -78.5t56 -29.5q62 0 62 74v266zM409 1254l143 370h298l-251 -370h-190z" />
    <glyph glyph-name="agrave" unicode="&#xe0;" horiz-adv-x="1122" 
d="M596 72q-60 -52 -116 -72t-141 -20q-76 0 -125 18.5t-89 63.5q-92 101 -92 261q0 165 100 261q47 46 104 72t195 66q75 22 108.5 54t33.5 83q0 53 -41.5 84.5t-110.5 31.5q-68 0 -122 -20t-133 -75l-45 225q223 69 446 69q440 0 440 -306v-571q0 -58 48 -58q23 0 58 28
v-205q-83 -51 -133.5 -66.5t-134.5 -15.5q-87 0 -143.5 21t-106.5 71zM574 588q-67 -35 -103 -94.5t-36 -137.5q0 -49 21 -78.5t56 -29.5q62 0 62 74v266zM510 1253l-247 372h295l137 -372h-185z" />
    <glyph glyph-name="acircumflex" unicode="&#xe2;" horiz-adv-x="1122" 
d="M596 72q-60 -52 -116 -72t-141 -20q-76 0 -125 18.5t-89 63.5q-92 101 -92 261q0 165 100 261q47 46 104 72t195 66q75 22 108.5 54t33.5 83q0 53 -41.5 84.5t-110.5 31.5q-68 0 -122 -20t-133 -75l-45 225q223 69 446 69q440 0 440 -306v-571q0 -58 48 -58q23 0 58 28
v-205q-83 -51 -133.5 -66.5t-134.5 -15.5q-87 0 -143.5 21t-106.5 71zM574 588q-67 -35 -103 -94.5t-36 -137.5q0 -49 21 -78.5t56 -29.5q62 0 62 74v266zM191 1254l270 355h207l264 -355h-255l-117 204l-120 -204h-249z" />
    <glyph glyph-name="adieresis" unicode="&#xe4;" horiz-adv-x="1122" 
d="M596 72q-60 -52 -116 -72t-141 -20q-76 0 -125 18.5t-89 63.5q-92 101 -92 261q0 165 100 261q47 46 104 72t195 66q75 22 108.5 54t33.5 83q0 53 -41.5 84.5t-110.5 31.5q-68 0 -122 -20t-133 -75l-45 225q223 69 446 69q440 0 440 -306v-571q0 -58 48 -58q23 0 58 28
v-205q-83 -51 -133.5 -66.5t-134.5 -15.5q-87 0 -143.5 21t-106.5 71zM574 588q-67 -35 -103 -94.5t-36 -137.5q0 -49 21 -78.5t56 -29.5q62 0 62 74v266zM302 1525q205 0 205 -125q0 -67 -41 -97q-57 -41 -170 -41q-104 0 -158 33t-54 98q0 131 218 132zM807 1523
q205 0 205 -125q0 -67 -41 -97q-57 -41 -170 -41q-104 0 -158 33t-54 98q0 131 218 132z" />
    <glyph glyph-name="atilde" unicode="&#xe3;" horiz-adv-x="1122" 
d="M596 72q-60 -52 -116 -72t-141 -20q-76 0 -125 18.5t-89 63.5q-92 101 -92 261q0 165 100 261q47 46 104 72t195 66q75 22 108.5 54t33.5 83q0 53 -41.5 84.5t-110.5 31.5q-68 0 -122 -20t-133 -75l-45 225q223 69 446 69q440 0 440 -306v-571q0 -58 48 -58q23 0 58 28
v-205q-83 -51 -133.5 -66.5t-134.5 -15.5q-87 0 -143.5 21t-106.5 71zM574 588q-67 -35 -103 -94.5t-36 -137.5q0 -49 21 -78.5t56 -29.5q62 0 62 74v266zM227 1286v252q105 44 179 44q69 0 200 -32q132 -33 174 -33q63 0 115 35v-246q-77 -39 -133 -39q-34 0 -60.5 5
t-152.5 35q-97 23 -173 23q-72 0 -149 -44z" />
    <glyph glyph-name="aring" unicode="&#xe5;" horiz-adv-x="1122" 
d="M596 72q-60 -52 -116 -72t-141 -20q-76 0 -125 18.5t-89 63.5q-92 101 -92 261q0 165 100 261q47 46 104 72t195 66q75 22 108.5 54t33.5 83q0 53 -41.5 84.5t-110.5 31.5q-68 0 -122 -20t-133 -75l-45 225q223 69 446 69q440 0 440 -306v-571q0 -58 48 -58q23 0 58 28
v-205q-83 -51 -133.5 -66.5t-134.5 -15.5q-87 0 -143.5 21t-106.5 71zM574 588q-67 -35 -103 -94.5t-36 -137.5q0 -49 21 -78.5t56 -29.5q62 0 62 74v266zM559 1685q97 0 165 -68q66 -67 66 -162t-67 -162t-163 -67t-160 66q-68 70 -68 165q0 93 66.5 160t160.5 68z
M561 1557q-43 0 -74 -30t-31 -72q0 -43 30.5 -73t74.5 -30q45 0 76 29.5t31 72.5t-31 72.5t-76 30.5z" />
    <glyph glyph-name="ccedilla" unicode="&#xe7;" horiz-adv-x="1028" 
d="M981 31q-174 -52 -317 -52q-265 0 -425 144q-180 161 -180 446q0 295 196 463q165 142 422 142q132 0 304 -48v-256q-80 65 -124.5 85t-106.5 20q-236 0 -236 -385q0 -402 232 -402q107 0 235 87v-244zM395 -416l80 305h285l-177 -305h-188z" />
    <glyph glyph-name="eacute" unicode="&#xe9;" horiz-adv-x="1217" 
d="M1117 79q-127 -59 -217 -79.5t-219 -20.5q-205 0 -332 64q-290 145 -290 514q0 294 166 466q148 153 416 153q222 0 340 -94q101 -79 145.5 -198.5t44.5 -310.5v-34h-660q3 -147 32 -224q26 -72 85.5 -112t139.5 -40q84 0 156 34t154 113zM516 733h197q-4 93 -11 145
q-14 113 -88 113q-50 0 -73 -60t-25 -198zM484 1254l143 370h298l-251 -370h-190z" />
    <glyph glyph-name="egrave" unicode="&#xe8;" horiz-adv-x="1217" 
d="M1117 79q-127 -59 -217 -79.5t-219 -20.5q-205 0 -332 64q-290 145 -290 514q0 294 166 466q148 153 416 153q222 0 340 -94q101 -79 145.5 -198.5t44.5 -310.5v-34h-660q3 -147 32 -224q26 -72 85.5 -112t139.5 -40q84 0 156 34t154 113zM516 733h197q-4 93 -11 145
q-14 113 -88 113q-50 0 -73 -60t-25 -198zM585 1253l-247 372h295l137 -372h-185z" />
    <glyph glyph-name="ecircumflex" unicode="&#xea;" horiz-adv-x="1217" 
d="M1117 79q-127 -59 -217 -79.5t-219 -20.5q-205 0 -332 64q-290 145 -290 514q0 294 166 466q148 153 416 153q222 0 340 -94q101 -79 145.5 -198.5t44.5 -310.5v-34h-660q3 -147 32 -224q26 -72 85.5 -112t139.5 -40q84 0 156 34t154 113zM516 733h197q-4 93 -11 145
q-14 113 -88 113q-50 0 -73 -60t-25 -198zM266 1254l270 355h207l264 -355h-255l-117 204l-120 -204h-249z" />
    <glyph glyph-name="edieresis" unicode="&#xeb;" horiz-adv-x="1217" 
d="M1117 79q-127 -59 -217 -79.5t-219 -20.5q-205 0 -332 64q-290 145 -290 514q0 294 166 466q148 153 416 153q222 0 340 -94q101 -79 145.5 -198.5t44.5 -310.5v-34h-660q3 -147 32 -224q26 -72 85.5 -112t139.5 -40q84 0 156 34t154 113zM516 733h197q-4 93 -11 145
q-14 113 -88 113q-50 0 -73 -60t-25 -198zM384 1525q205 0 205 -125q0 -67 -41 -97q-57 -41 -170 -41q-104 0 -158 33t-54 98q0 131 218 132zM889 1523q205 0 205 -125q0 -67 -41 -97q-57 -41 -170 -41q-104 0 -158 33t-54 98q0 131 218 132z" />
    <glyph glyph-name="iacute" unicode="&#xed;" horiz-adv-x="647" 
d="M93 1140h462q-13 -25 -14 -68v-1004q1 -40 14 -68h-462q13 26 14 68v1004q-1 46 -14 68zM185 1254l143 370h298l-251 -370h-190z" />
    <glyph glyph-name="igrave" unicode="&#xec;" horiz-adv-x="647" 
d="M93 1140h462q-13 -25 -14 -68v-1004q1 -40 14 -68h-462q13 26 14 68v1004q-1 46 -14 68zM273 1253l-247 372h295l137 -372h-185z" />
    <glyph glyph-name="icircumflex" unicode="&#xee;" horiz-adv-x="647" 
d="M92 1140h462q-13 -25 -14 -68v-1004q1 -40 14 -68h-462q13 26 14 68v1004q-1 46 -14 68zM-47 1254l270 355h207l264 -355h-255l-117 204l-120 -204h-249z" />
    <glyph glyph-name="idieresis" unicode="&#xef;" horiz-adv-x="647" 
d="M93 1140h462q-13 -25 -14 -68v-1004q1 -40 14 -68h-462q13 26 14 68v1004q-1 46 -14 68zM98 1525q184 0 184 -125q0 -138 -190 -138q-93 0 -141.5 33.5t-48.5 97.5q0 131 196 132zM562 1523q184 0 184 -125q0 -138 -190 -138q-93 0 -141.5 33.5t-48.5 97.5q0 131 196 132
z" />
    <glyph glyph-name="ntilde" unicode="&#xf1;" horiz-adv-x="1251" 
d="M93 1140h434v-95q119 129 308 129q166 0 252 -103q57 -70 57 -209v-794q1 -39 14 -68h-462q13 23 14 68v699q0 61 -17 86t-58 25q-44 0 -69 -30t-25 -82v-698q1 -43 14 -68h-462q13 24 14 68v1004q-1 44 -14 68zM291 1286v252q105 44 179 44q69 0 200 -32
q132 -33 174 -33q63 0 115 35v-246q-77 -39 -133 -39q-34 0 -60.5 5t-152.5 35q-97 23 -173 23q-72 0 -149 -44z" />
    <glyph glyph-name="oacute" unicode="&#xf3;" horiz-adv-x="1236" 
d="M624 1174q253 0 394 -143q159 -162 159 -455q0 -307 -179 -472q-70 -64 -161.5 -94t-218.5 -30q-126 0 -213 28t-160 91q-186 161 -186 484q0 194 75 334q71 133 189.5 194.5t300.5 62.5zM618 990q-59 0 -81.5 -89t-22.5 -323q0 -214 22 -325q17 -89 82 -89
q59 0 81.5 89.5t22.5 321.5q0 236 -22 324.5t-82 90.5zM466 1254l143 370h298l-251 -370h-190z" />
    <glyph glyph-name="ograve" unicode="&#xf2;" horiz-adv-x="1236" 
d="M624 1174q253 0 394 -143q159 -162 159 -455q0 -307 -179 -472q-70 -64 -161.5 -94t-218.5 -30q-126 0 -213 28t-160 91q-186 161 -186 484q0 194 75 334q71 133 189.5 194.5t300.5 62.5zM618 990q-59 0 -81.5 -89t-22.5 -323q0 -214 22 -325q17 -89 82 -89
q59 0 81.5 89.5t22.5 321.5q0 236 -22 324.5t-82 90.5zM567 1253l-247 372h295l137 -372h-185z" />
    <glyph glyph-name="ocircumflex" unicode="&#xf4;" horiz-adv-x="1236" 
d="M624 1174q253 0 394 -143q159 -162 159 -455q0 -307 -179 -472q-70 -64 -161.5 -94t-218.5 -30q-126 0 -213 28t-160 91q-186 161 -186 484q0 194 75 334q71 133 189.5 194.5t300.5 62.5zM618 990q-59 0 -81.5 -89t-22.5 -323q0 -214 22 -325q17 -89 82 -89
q59 0 81.5 89.5t22.5 321.5q0 236 -22 324.5t-82 90.5zM248 1254l270 355h207l264 -355h-255l-117 204l-120 -204h-249z" />
    <glyph glyph-name="odieresis" unicode="&#xf6;" horiz-adv-x="1236" 
d="M624 1174q253 0 394 -143q159 -162 159 -455q0 -307 -179 -472q-70 -64 -161.5 -94t-218.5 -30q-126 0 -213 28t-160 91q-186 161 -186 484q0 194 75 334q71 133 189.5 194.5t300.5 62.5zM618 990q-59 0 -81.5 -89t-22.5 -323q0 -214 22 -325q17 -89 82 -89
q59 0 81.5 89.5t22.5 321.5q0 236 -22 324.5t-82 90.5zM373 1525q205 0 205 -125q0 -67 -41 -97q-57 -41 -170 -41q-104 0 -158 33t-54 98q0 131 218 132zM878 1523q205 0 205 -125q0 -67 -41 -97q-57 -41 -170 -41q-104 0 -158 33t-54 98q0 131 218 132z" />
    <glyph glyph-name="otilde" unicode="&#xf5;" horiz-adv-x="1236" 
d="M624 1174q253 0 394 -143q159 -162 159 -455q0 -307 -179 -472q-70 -64 -161.5 -94t-218.5 -30q-126 0 -213 28t-160 91q-186 161 -186 484q0 194 75 334q71 133 189.5 194.5t300.5 62.5zM618 990q-59 0 -81.5 -89t-22.5 -323q0 -214 22 -325q17 -89 82 -89
q59 0 81.5 89.5t22.5 321.5q0 236 -22 324.5t-82 90.5zM284 1286v252q105 44 179 44q69 0 200 -32q132 -33 174 -33q63 0 115 35v-246q-77 -39 -133 -39q-34 0 -60.5 5t-152.5 35q-97 23 -173 23q-72 0 -149 -44z" />
    <glyph glyph-name="uacute" unicode="&#xfa;" horiz-adv-x="1251" 
d="M724 0v100q-75 -67 -144.5 -93.5t-167.5 -26.5q-157 0 -237 96q-37 45 -52.5 99t-15.5 140v757q-1 43 -14 68h462q-13 -22 -14 -68v-697q0 -99 84 -99q39 0 62 26.5t23 71.5v698q-1 44 -14 68h462q-13 -21 -14 -68v-1004q1 -37 14 -68h-434zM474 1254l143 370h298
l-251 -370h-190z" />
    <glyph glyph-name="ugrave" unicode="&#xf9;" horiz-adv-x="1251" 
d="M724 0v100q-75 -67 -144.5 -93.5t-167.5 -26.5q-157 0 -237 96q-37 45 -52.5 99t-15.5 140v757q-1 43 -14 68h462q-13 -22 -14 -68v-697q0 -99 84 -99q39 0 62 26.5t23 71.5v698q-1 44 -14 68h462q-13 -21 -14 -68v-1004q1 -37 14 -68h-434zM574 1253l-247 372h295
l137 -372h-185z" />
    <glyph glyph-name="ucircumflex" unicode="&#xfb;" horiz-adv-x="1251" 
d="M724 0v100q-75 -67 -144.5 -93.5t-167.5 -26.5q-157 0 -237 96q-37 45 -52.5 99t-15.5 140v757q-1 43 -14 68h462q-13 -22 -14 -68v-697q0 -99 84 -99q39 0 62 26.5t23 71.5v698q-1 44 -14 68h462q-13 -21 -14 -68v-1004q1 -37 14 -68h-434zM255 1254l270 355h207
l264 -355h-255l-117 204l-120 -204h-249z" />
    <glyph glyph-name="udieresis" unicode="&#xfc;" horiz-adv-x="1251" 
d="M724 0v100q-75 -67 -144.5 -93.5t-167.5 -26.5q-157 0 -237 96q-37 45 -52.5 99t-15.5 140v757q-1 43 -14 68h462q-13 -22 -14 -68v-697q0 -99 84 -99q39 0 62 26.5t23 71.5v698q-1 44 -14 68h462q-13 -21 -14 -68v-1004q1 -37 14 -68h-434zM380 1525q205 0 205 -125
q0 -67 -41 -97q-57 -41 -170 -41q-104 0 -158 33t-54 98q0 131 218 132zM885 1523q205 0 205 -125q0 -67 -41 -97q-57 -41 -170 -41q-104 0 -158 33t-54 98q0 131 218 132z" />
    <glyph glyph-name="dagger" unicode="&#x2020;" horiz-adv-x="1201" 
d="M811 942h263q33 0 57 7v-252q-24 7 -57 7h-263v-995q0 -41 8 -64h-435q8 23 8 64v995h-264q-33 0 -57 -7v252q24 -7 57 -7h264v359q0 41 -8 64h435q-8 -23 -8 -64v-359z" />
    <glyph glyph-name="degree" unicode="&#xb0;" horiz-adv-x="1201" 
d="M606 1385q126 0 216 -98q76 -84 76 -198q0 -133 -98 -221q-86 -76 -199 -76q-132 0 -221 98q-76 84 -76 201q0 128 99 218q83 76 203 76zM603 1229q-64 0 -106 -47q-36 -40 -36 -92q0 -59 41 -100.5t99 -41.5t99 41.5t41 99.5q0 57 -40 97.5t-98 42.5z" />
    <glyph glyph-name="cent" unicode="&#xa2;" horiz-adv-x="1201" 
d="M575 1251v148h177v-128q192 -3 309 -50v-251q-118 100 -230 100q-241 0 -241 -393q0 -394 244 -394q51 0 112 23.5t115 62.5v-244q-71 -24 -152 -37t-157 -13v-143h-177v158q-173 42 -273 141q-161 158 -161 432q0 193 88 341q57 96 135.5 152t210.5 95z" />
    <glyph glyph-name="sterling" unicode="&#xa3;" horiz-adv-x="1201" 
d="M199 0l-48 314q52 -49 102 -49q53 0 89 36q42 42 42 102q0 37 -14.5 87t-35.5 85h-183v143h100q-49 101 -66.5 158t-17.5 118q0 89 38.5 168.5t108.5 133.5q65 51 147.5 72.5t208.5 21.5q196 0 399 -55l-32 -228q-93 43 -134.5 56t-84.5 13q-54 0 -103 -26t-76 -68
q-34 -52 -34 -143q0 -84 53 -221h301v-143h-262q0 -118 -60.5 -199.5t-180.5 -124.5q178 -12 239 -12q167 0 410 66v-296q-256 -34 -463 -34q-168 0 -443 25z" />
    <glyph glyph-name="section" unicode="&#xa7;" horiz-adv-x="1202" 
d="M1069 1297l-54 -272q-176 163 -350 163q-75 0 -119 -31.5t-44 -85.5q0 -45 28 -71t103 -49l323 -100q110 -33 160 -95t50 -164q0 -191 -177 -318q68 -51 95.5 -103t27.5 -131q0 -111 -59 -208q-78 -129 -258 -189q-125 -42 -280 -42q-267 0 -464 124l102 308
q107 -113 190.5 -160.5t174.5 -47.5q83 0 144 37q64 39 64 98q0 58 -61 97q-28 17 -45.5 23.5t-94.5 25.5l-262 78q-90 27 -142.5 99t-52.5 168q0 88 39.5 159t131.5 147q-91 97 -91 244q0 205 152 304q131 85 339 85q246 0 430 -93zM373 676q-56 -43 -56 -88q0 -55 116 -88
l362 -103q41 -12 63 -26q59 57 59 94q0 28 -24 46t-85 36l-387 111q-38 13 -48 18z" />
    <glyph glyph-name="bullet" unicode="&#x2022;" horiz-adv-x="1365" 
d="M689 978q113 0 196 -83q84 -83 84 -201t-84 -201q-82 -83 -200 -83t-200 83q-84 83 -84 200q0 121 84 202q84 83 204 83z" />
    <glyph glyph-name="paragraph" unicode="&#xb6;" horiz-adv-x="1201" 
d="M544 522h-53q-111 0 -181.5 20.5t-131.5 70.5q-132 108 -132 340q0 231 136 335q56 42 121 59.5t168 17.5h631q-13 -23 -14 -69v-1637h-231v1569h-82v-1569h-231v863z" />
    <glyph glyph-name="germandbls" unicode="&#xdf;" horiz-adv-x="1263" 
d="M591 -1v220q56 -45 113 -45q53 0 85 34q35 37 35 92q0 101 -157 354q-45 72 -45 120q0 41 14 65.5t90 116.5q35 42 49 82.5t14 99.5q0 177 -129 177q-65 0 -95 -42.5t-30 -132.5v-1140h-448q13 29 14 68v1029q0 111 30.5 180t102.5 119q147 103 387 103q198 0 316 -79
q125 -84 125 -223q0 -60 -22.5 -110t-91.5 -142q-38 -52 -38 -71t34 -49q154 -136 200 -187q87 -99 87 -258q0 -184 -125 -300q-113 -105 -310 -105q-92 0 -205 24z" />
    <glyph glyph-name="registered" unicode="&#xae;" horiz-adv-x="1556" 
d="M789 1392q182 0 344 -95q165 -98 260 -260q95 -164 95 -354q0 -191 -95 -355q-95 -165 -260 -260t-355 -95t-355 95q-166 96 -260 260q-95 165 -95 360q0 306 235 521q200 183 486 183zM777 1270q-239 0 -409 -172q-171 -171 -171 -415t171 -416q169 -172 410 -172
t411 172q54 55 92 122q78 137 78 287q0 252 -170 422t-412 172zM746 617v-274q0 -24 12 -49h-342q14 22 14 49v693q0 23 -12 49h450q128 0 201 -60.5t73 -166.5q0 -71 -30.5 -119t-100.5 -84l141 -307q7 -14 37 -54h-354q1 8 1 12q0 8 -8 34zM746 722h9q82 0 82 117
q0 126 -75 126h-16v-243z" />
    <glyph glyph-name="copyright" unicode="&#xa9;" horiz-adv-x="1556" 
d="M789 1392q182 0 344 -95q165 -98 260 -260q95 -164 95 -354q0 -191 -95 -355q-95 -165 -260 -260t-355 -95t-355 95q-166 96 -260 260q-95 165 -95 360q0 306 235 521q200 183 486 183zM787 1270q-266 0 -441 -195q-149 -167 -149 -388q0 -266 192 -441
q166 -151 389 -151q156 0 290 79q136 78 213 215q78 137 78 294q0 257 -193 436q-155 143 -379 151zM1110 1050v-193q-135 95 -228 95q-89 0 -140 -70.5t-51 -194.5q0 -145 62 -214q53 -60 135 -60q88 0 222 92v-188q-134 -44 -280 -44q-467 0 -467 416q0 141 55 223
q121 180 436 180q137 0 256 -42z" />
    <glyph glyph-name="trademark" unicode="&#x2122;" horiz-adv-x="1944" 
d="M-3 1365h745v-162q-34 9 -60 9h-151v-615q0 -26 13 -51h-352q13 25 13 51v615h-137q-30 0 -71 -8v161zM995 951l-47 -356q-1 -5 -1 -8q0 -15 12 -41h-200q19 25 23 52l114 718q2 15 2 22q0 8 -5 27h296q-4 -14 -4 -21q0 -11 6 -26l158 -426l161 426q7 19 7 31q0 6 -1 16
h287q-4 -20 -4 -27q0 -11 2 -22l107 -718q4 -27 25 -52h-358q4 19 4 27q0 6 -2 23l-38 353l-135 -356q-7 -17 -7 -27q0 -7 3 -20h-267q1 10 1 16q0 13 -7 31z" />
    <glyph glyph-name="acute" unicode="&#xb4;" horiz-adv-x="1024" 
d="M360 1254l143 370h298l-251 -370h-190z" />
    <glyph glyph-name="dieresis" unicode="&#xa8;" horiz-adv-x="1024" 
d="M266 1525q205 0 205 -125q0 -67 -41 -97q-57 -41 -170 -41q-104 0 -158 33t-54 98q0 131 218 132zM771 1523q205 0 205 -125q0 -67 -41 -97q-57 -41 -170 -41q-104 0 -158 33t-54 98q0 131 218 132z" />
    <glyph glyph-name="notequal" unicode="&#x2260;" horiz-adv-x="1201" 
d="M342 367h-207v250h323l62 132h-385v250h502l100 215l183 -86l-60 -129h207v-250h-323l-62 -132h385v-250h-502l-100 -214l-183 85z" />
    <glyph glyph-name="AE" unicode="&#xc6;" horiz-adv-x="1718" 
d="M1647 1365v-200q-33 9 -71 9h-330v-392h328q47 0 73 8v-208q-26 9 -71 9h-330v-385h319q56 0 82 9v-215h-876q13 25 14 68v276h-401l-134 -276q-17 -35 -18 -60v-8h-273q27 27 48 69l617 1228q21 44 22 68h1001zM785 550v629l-302 -629h302z" />
    <glyph glyph-name="Oslash" unicode="&#xd8;" horiz-adv-x="1565" 
d="M1218 1288l76 77h323l-229 -232q122 -174 122 -453q0 -363 -206 -541q-191 -164 -542 -164q-139 0 -239 23.5t-183 75.5l-73 -74h-323l231 234q-121 179 -121 452q0 373 217 549q190 155 509 155q256 0 438 -102zM983 1074q-63 132 -201 132q-136 0 -198.5 -124.5
t-62.5 -394.5q0 -55 3 -111zM1039 796l-460 -499q63 -138 203 -138q134 0 197.5 123.5t63.5 383.5q0 54 -4 130z" />
    <glyph glyph-name="infinity" unicode="&#x221e;" horiz-adv-x="1365" 
d="M690 509q-47 -45 -82 -72q-106 -80 -237 -80q-156 0 -255 108q-83 89 -83 229q0 168 119 263q93 75 216 75q144 0 249 -97q53 -48 59 -53q35 32 38 36q124 114 277 114q80 0 152.5 -32.5t118.5 -89.5q69 -86 69 -214q0 -160 -107 -255q-96 -84 -229 -84q-151 0 -270 117z
M824 695q62 -80 121 -80q38 0 64 23.5t26 56.5t-26.5 56.5t-63.5 23.5q-48 0 -90 -44q-34 -34 -31 -36zM541 694q-63 79 -122 79q-38 0 -64 -23t-26 -56q0 -32 26.5 -55.5t63.5 -23.5q49 0 91 43q33 34 31 36z" />
    <glyph glyph-name="plusminus" unicode="&#xb1;" horiz-adv-x="1201" 
d="M476 667h-341v250h341v327h250v-327h341v-250h-341v-327h-250v327zM135 0v250h932v-250h-932z" />
    <glyph glyph-name="lessequal" unicode="&#x2264;" horiz-adv-x="1024" 
d="M955 1417v-417l-400 -82l398 -80l2 -417l-887 313v372zM955 371v-392h-887v392h887z" />
    <glyph glyph-name="greaterequal" unicode="&#x2265;" horiz-adv-x="1024" 
d="M68 421l2 417l398 80l-400 82v417l887 -311v-372zM68 -21v392h887v-392h-887z" />
    <glyph glyph-name="yen" unicode="&#xa5;" horiz-adv-x="1201" 
d="M352 617l-61 156h-198v109h156l-161 415q-15 39 -40 68h515q-2 -11 -2 -15q0 -16 12 -53l149 -444l166 444q16 45 15 68h251q-23 -28 -40 -68l-166 -415h161v-109h-205l-63 -156h268v-109h-285v-439q1 -46 14 -69h-480q13 24 14 68v440h-279v109h259z" />
    <glyph glyph-name="mu" unicode="&#xb5;" horiz-adv-x="1251" 
d="M93 1140h462q-13 -22 -14 -68v-697q0 -99 84 -99q39 0 62 26.5t23 71.5v698q-1 44 -14 68h462q-13 -21 -14 -68v-1004q1 -37 14 -68h-434v100q-67 -58 -107 -77t-96 -19v-236q1 -41 13 -68h-441q13 25 14 68v1304q-1 43 -14 68z" />
    <glyph glyph-name="partialdiff" unicode="&#x2202;" horiz-adv-x="1024" 
d="M76 1026l47 323q414 -35 641 -220q247 -199 247 -550q0 -333 -189 -488q-131 -107 -337 -107q-205 0 -330 122q-69 67 -108.5 166t-39.5 204q0 96 42.5 181.5t118.5 143.5q107 80 263 80q74 0 114.5 -8.5t69.5 -29.5q-26 54 -59 77.5t-124 51.5q-89 28 -164 39.5
t-192 14.5zM505 571q-52 0 -87 -36.5t-35 -90.5q0 -53 36 -89.5t88 -36.5q50 0 86 37t36 88q0 53 -36 90t-88 38z" />
    <glyph glyph-name="summation" unicode="&#x2211;" horiz-adv-x="1365" 
d="M1318 1536v-571h-380l-48 182h-346l483 -610l-479 -660h360l27 199h401v-588h-1268v447l457 601l-457 550v450h1250z" />
    <glyph glyph-name="product" unicode="&#x220f;" horiz-adv-x="1365" 
d="M23 1536h1319v-337h-144v-1373h144v-338h-634v338h112v1373h-276v-1373h110v-338h-631v338h147v1373h-147v337z" />
    <glyph glyph-name="pi" unicode="&#x3c0;" horiz-adv-x="1397" 
d="M192 0v673h-150v310h1312v-310h-149v-673h-395v673h-223v-673h-395z" />
    <glyph glyph-name="integral" unicode="&#x222b;" horiz-adv-x="1024" 
d="M-2 -492l66 402q58 -21 94 -21q40 0 71.5 19.5t44.5 51.5q7 20 8.5 51.5t1.5 202.5v515v127q0 181 8 252q16 132 73 218q139 210 446 210q84 0 216 -20l-66 -402q-57 20 -97 20q-83 0 -112 -71q-11 -25 -11 -109v-648q0 -271 -1.5 -325t-11.5 -107q-35 -191 -184 -298
q-125 -90 -331 -90q-87 0 -165 15q-33 6 -50 7z" />
    <glyph glyph-name="ordfeminine" unicode="&#xaa;" horiz-adv-x="887" 
d="M466 606q-63 -72 -177 -72q-88 0 -141 51q-64 61 -64 160t61.5 154.5t210.5 90.5q85 20 85 69q0 26 -24.5 41.5t-65.5 15.5q-45 0 -80.5 -12.5t-94.5 -50.5l-35 157q155 44 307 44q301 0 301 -190v-334q0 -23 22 -23q24 0 49 27v-147q-61 -34 -96 -43.5t-93 -9.5
q-68 0 -103.5 15.5t-61.5 56.5zM441 893q-97 -36 -97 -129q0 -66 52 -66q45 0 45 47v148z" />
    <glyph glyph-name="ordmasculine" unicode="&#xba;" horiz-adv-x="888" 
d="M444 1254q175 0 275 -86q111 -96 111 -274q0 -172 -101 -266t-286 -94q-161 0 -257 72q-129 96 -129 293q0 172 111 269q52 45 116 65t160 21zM444 1125q-37 0 -51 -50.5t-14 -179.5q0 -130 14 -180.5t50 -50.5q37 0 51 50.5t14 178.5q0 131 -14 181t-50 51z" />
    <glyph glyph-name="Omega" unicode="&#x2126;" horiz-adv-x="1365" 
d="M56 0v367h203q-86 57 -128 112q-85 111 -85 285q0 165 83 316q87 157 242 242q141 77 312 77q287 0 470 -201q80 -88 125 -207q42 -113 42 -228q0 -182 -95 -297q-38 -45 -118 -99h203v-367h-569v337q82 39 116 121q12 29 22 105t10 139q0 125 -34 205q-22 52 -71.5 86.5
t-100.5 34.5q-52 0 -100.5 -34.5t-71.5 -87.5q-34 -80 -34 -207q0 -155 35 -240t113 -122v-337h-569z" />
    <glyph glyph-name="ae" unicode="&#xe6;" horiz-adv-x="1716" 
d="M1670 539h-660q4 -147 32 -224q27 -72 86.5 -112t139.5 -40q83 0 155 34t155 113l39 -231q-127 -58 -217 -79t-214 -21q-186 0 -306.5 47.5t-192.5 149.5q-90 -115 -161.5 -155.5t-186.5 -40.5q-76 0 -125 18.5t-89 62.5q-92 102 -92 262q0 164 100 261q47 45 104 71.5
t195 66.5q75 21 108.5 53.5t33.5 82.5q0 54 -41.5 85.5t-110.5 31.5q-68 0 -121 -20t-134 -75l-45 225q223 69 441 69q179 0 293 -53q128 55 300 55q350 0 467 -288q47 -114 47 -315v-34zM574 587q-67 -33 -103 -93t-36 -139q0 -49 21 -78.5t56 -29.5q62 0 62 75v265z
M1015 733h197q-4 93 -10 145q-15 113 -89 113q-50 0 -73 -60t-25 -198z" />
    <glyph glyph-name="oslash" unicode="&#xf8;" horiz-adv-x="1236" 
d="M968 1075l92 94h267l-234 -236q84 -147 84 -359q0 -304 -179 -469q-71 -66 -162.5 -95.5t-224.5 -29.5q-116 0 -197.5 25t-156.5 83l-88 -88h-260l226 233q-76 149 -76 343q0 291 159 455q73 75 169 109t233 34q115 0 196.5 -23.5t151.5 -75.5zM723 843q-7 45 -11 66
q-21 90 -94 90q-67 0 -91 -82t-27 -319zM736 576l-226 -244q7 -54 14 -86q21 -91 94 -91q67 0 92.5 92.5t25.5 328.5z" />
    <glyph glyph-name="questiondown" unicode="&#xbf;" horiz-adv-x="819" 
d="M699 75v-217q-143 -87 -309 -87q-142 0 -227 65q-97 75 -97 190q0 47 15 88.5t61 125.5q90 161 90 194q0 45 -51 45q-27 0 -59 -20v167q148 70 272 70q118 0 212 -73q82 -64 82 -165q0 -62 -21.5 -115.5t-100.5 -185.5q-39 -66 -39 -99q0 -25 17 -42.5t41 -17.5
q48 0 114 77zM430 1174q115 0 176 -68q55 -61 55 -153q0 -86 -55 -148q-60 -68 -175 -68q-116 0 -179 68q-55 59 -55 151q0 99 62.5 157.5t170.5 60.5z" />
    <glyph glyph-name="exclamdown" unicode="&#xa1;" horiz-adv-x="751" 
d="M551 683l54 -820q4 -48 16 -68h-491q12 19 16 68l52 820h353zM376 1174q115 0 176 -68q55 -61 55 -153q0 -96 -63.5 -156t-166.5 -60q-116 0 -179 68q-55 59 -55 151q0 99 62.5 157.5t170.5 60.5z" />
    <glyph glyph-name="logicalnot" unicode="&#xac;" horiz-adv-x="1024" 
d="M518 0v229h-450v392h887v-621h-437z" />
    <glyph glyph-name="radical" unicode="&#x221a;" horiz-adv-x="1365" 
d="M1365 1693v-349h-299l-289 -1344h-503l-77 453h-197v349h435l30 -157q7 -36 14.5 -127t7.5 -137q0 -11 -1 -38h25q-2 180 71 575l174 775h609z" />
    <glyph glyph-name="florin" unicode="&#x192;" horiz-adv-x="1201" 
d="M425 826h-143l26 150h144l40 229q21 121 96 180q114 89 331 89q152 0 322 -52l-100 -187q-67 40 -117 40q-86 0 -103 -96l-35 -203h217l-27 -150h-217l-150 -850q-21 -121 -96 -180q-113 -89 -331 -89q-153 0 -322 52l100 187q68 -40 118 -40q85 0 102 96z" />
    <glyph glyph-name="approxequal" unicode="&#x2248;" horiz-adv-x="1024" 
d="M224 713l-211 150q44 115 86 178q98 148 245 148q36 0 64 -7.5t161 -51.5q103 -36 127 -36q58 0 105 72l211 -150q-41 -103 -70 -153.5t-71 -93.5q-81 -83 -189 -83q-52 0 -224 62q-102 36 -132 36q-52 0 -102 -71zM224 180l-211 150q44 115 86 178q98 148 245 148
q36 0 64 -7.5t161 -51.5q103 -36 127 -36q59 0 105 72l211 -150q-41 -103 -70 -153t-71 -94q-81 -83 -189 -83q-45 0 -224 61q-104 37 -133 37q-52 0 -101 -71z" />
    <glyph glyph-name="Delta" unicode="&#x2206;" horiz-adv-x="1378" 
d="M20 0l446 1365h440l451 -1365h-1337zM557 367h254l-122 554z" />
    <glyph glyph-name="guillemotleft" unicode="&#xab;" horiz-adv-x="992" 
d="M917 177h-274l-213 424l213 423h274l-229 -423zM562 177h-273l-214 424l214 423h273l-228 -423z" />
    <glyph glyph-name="guillemotright" unicode="&#xbb;" horiz-adv-x="992" 
d="M75 177l229 424l-229 423h274l213 -423l-213 -424h-274zM430 177l228 424l-228 423h273l214 -423l-214 -424h-273z" />
    <glyph glyph-name="ellipsis" unicode="&#x2026;" horiz-adv-x="1966" 
d="M326 423q116 0 179 -68q55 -59 55 -151q0 -91 -55 -150q-63 -68 -178 -68q-116 0 -176 68q-55 62 -55 153q0 96 63 155.5t167 60.5zM981 423q116 0 179 -68q55 -59 55 -151q0 -91 -55 -150q-63 -68 -178 -68q-116 0 -176 68q-55 62 -55 153q0 96 63 155.5t167 60.5z
M1637 423q116 0 179 -68q55 -59 55 -151q0 -91 -55 -150q-63 -68 -178 -68q-116 0 -176 68q-55 62 -55 153q0 96 63 155.5t167 60.5z" />
    <glyph glyph-name="glyph172" horiz-adv-x="1202" 
 />
    <glyph glyph-name="Agrave" unicode="&#xc0;" horiz-adv-x="1279" 
d="M311 345l-96 -277q-12 -35 -12 -52q0 -4 3 -16h-247q23 24 39 68l429 1229q13 36 13 53q0 4 -2 15h387q-1 -9 -1 -12q0 -16 14 -56l439 -1229q17 -44 43 -68h-526q2 12 2 16q0 20 -10 52l-90 277h-385zM384 551h244l-119 395zM547 1467l-247 372h295l137 -372h-185z" />
    <glyph glyph-name="Atilde" unicode="&#xc3;" horiz-adv-x="1279" 
d="M311 345l-96 -277q-12 -35 -12 -52q0 -4 3 -16h-247q23 24 39 68l429 1229q13 36 13 53q0 4 -2 15h387q-1 -9 -1 -12q0 -16 14 -56l439 -1229q17 -44 43 -68h-526q2 12 2 16q0 20 -10 52l-90 277h-385zM384 551h244l-119 395zM266 1522v223q126 43 204 43q77 0 200 -31
q122 -31 172 -31q73 0 144 33v-218q-97 -37 -162 -37q-37 0 -63 5t-146 34q-93 22 -168 22q-83 0 -181 -43z" />
    <glyph glyph-name="Otilde" unicode="&#xd5;" horiz-adv-x="1565" 
d="M782 1390q303 0 490 -138q238 -175 238 -569q0 -366 -206 -544q-191 -164 -539 -164q-238 0 -378 72q-182 93 -266 284q-66 150 -66 365q0 112 27.5 223t74.5 186q175 281 625 285zM782 1198q-127 0 -186.5 -122t-59.5 -384t56 -392q56 -132 191 -132q127 0 186.5 122
t59.5 385q0 266 -56 392q-57 128 -191 131zM423 1522v223q126 43 204 43q77 0 200 -31q122 -31 172 -31q73 0 144 33v-218q-97 -37 -162 -37q-37 0 -63 5t-146 34q-93 22 -168 22q-83 0 -181 -43z" />
    <glyph glyph-name="OE" unicode="&#x152;" horiz-adv-x="1913" 
d="M1842 1365v-203q-32 12 -89 12h-311v-392h308q63 1 92 9v-208q-30 8 -92 8h-308v-385h324q50 1 76 11v-217h-763q-22 1 -96 -7q-162 -18 -228 -18q-285 0 -491 169q-111 91 -158 210q-51 128 -51 297q0 338 195 538q196 201 521 201l317 -25h754zM981 430v488
q0 113 -35 176q-26 47 -71.5 75.5t-94.5 28.5q-79 0 -141 -69q-54 -60 -78.5 -165t-24.5 -279q0 -250 49 -375q56 -143 198 -143q93 0 145.5 69.5t52.5 193.5z" />
    <glyph glyph-name="oe" unicode="&#x153;" horiz-adv-x="1881" 
d="M1835 539h-659q3 -146 32 -224q26 -71 85.5 -111t139.5 -40q83 0 155 34t155 112l39 -231q-126 -58 -215.5 -78.5t-212.5 -20.5q-128 0 -220.5 21t-173.5 69q-75 -50 -151.5 -70t-188.5 -20q-127 0 -214 27.5t-161 91.5q-186 161 -186 479q0 289 159 453q139 143 392 143
q119 0 200.5 -20.5t149.5 -66.5q140 89 357 89q209 0 328 -94q156 -122 183 -363q6 -52 7 -145v-35zM620 990q-60 3 -83 -88t-23 -335q0 -203 22 -314q17 -89 83 -89q58 0 81 89.5t23 319.5q0 237 -22 325.5t-81 91.5zM1180 733h198q-4 93 -11 145q-15 113 -88 113
q-51 0 -73.5 -59.5t-25.5 -198.5z" />
    <glyph glyph-name="endash" unicode="&#x2013;" horiz-adv-x="1251" 
d="M93 446l83 306h982l-81 -306h-984z" />
    <glyph glyph-name="emdash" unicode="&#x2014;" horiz-adv-x="1649" 
d="M0 446l83 306h1566l-81 -306h-1568z" />
    <glyph glyph-name="quotedblleft" unicode="&#x201c;" horiz-adv-x="1126" 
d="M393 669l-314 150l287 573l259 -123zM864 669l-314 150l287 573l259 -123z" />
    <glyph glyph-name="quotedblright" unicode="&#x201d;" horiz-adv-x="1126" 
d="M263 1392l314 -150l-287 -573l-259 123zM734 1392l314 -150l-287 -573l-259 123z" />
    <glyph glyph-name="quoteleft" unicode="&#x2018;" horiz-adv-x="655" 
d="M318 1392l259 -123l-232 -600l-314 150z" />
    <glyph glyph-name="quoteright" unicode="&#x2019;" horiz-adv-x="655" 
d="M263 1392l314 -150l-287 -573l-259 123z" />
    <glyph glyph-name="divide" unicode="&#xf7;" horiz-adv-x="1201" 
d="M135 558v250h932v-250h-932zM600 1207q76 0 121.5 -42.5t45.5 -113.5q0 -70 -45.5 -112.5t-120.5 -42.5t-120 43t-45 114q0 69 45 111t119 43zM600 469q76 0 121.5 -42.5t45.5 -113.5q0 -70 -45.5 -112.5t-120.5 -42.5t-120 43t-45 114q0 69 45 111t119 43z" />
    <glyph glyph-name="lozenge" unicode="&#x25ca;" horiz-adv-x="1365" 
d="M683 1419l532 -736l-532 -736l-532 736zM683 1237l-404 -554l404 -555l403 555z" />
    <glyph glyph-name="ydieresis" unicode="&#xff;" horiz-adv-x="1001" 
d="M373 -2l-406 1073q-17 43 -39 69h516q-1 -7 -1 -9q0 -21 13 -60l159 -481l179 482q15 44 16 68h251q-22 -25 -41 -68l-533 -1303q-17 -44 -17 -69h-262q22 24 45 68zM256 1525q205 0 205 -125q0 -67 -41 -97q-57 -41 -170 -41q-104 0 -158 33t-54 98q0 131 218 132z
M761 1523q205 0 205 -125q0 -67 -41 -97q-57 -41 -170 -41q-104 0 -158 33t-54 98q0 131 218 132z" />
    <glyph glyph-name="Ydieresis" unicode="&#x178;" horiz-adv-x="1047" 
d="M290 565l-312 732q-18 42 -39 68h524q-3 -13 -3 -16q0 -18 13 -52l177 -444l192 444q16 37 16 59q0 2 -1 9h251q-20 -26 -39 -68l-318 -723v-505q1 -46 14 -69h-489q13 24 14 68v497zM279 1739q205 0 205 -125q0 -67 -41 -97q-57 -41 -170 -41q-104 0 -158 33t-54 97
q0 132 218 133zM784 1738q205 0 205 -125q0 -67 -41 -97q-57 -41 -170 -41q-104 0 -158 33t-54 97q0 132 218 133z" />
    <glyph glyph-name="fraction" unicode="&#x2215;" horiz-adv-x="325" 
d="M-246 0l610 1365h206l-609 -1365h-207z" />
    <glyph glyph-name="currency" unicode="&#xa4;" horiz-adv-x="1201" 
d="M814 332q-104 -59 -213 -59q-110 0 -212 59l-156 -155l-138 138l155 155q-59 103 -59 212q0 108 59 213l-155 155l138 139l155 -156q107 60 216 60q104 0 210 -60l155 156l138 -139l-155 -155q59 -104 59 -212q0 -110 -59 -213l155 -155l-138 -138zM604 857
q-79 0 -131 -58q-44 -49 -44 -115q0 -78 57 -130q49 -45 115 -45q77 0 128 58q44 49 44 116q0 72 -48.5 122t-120.5 52z" />
    <glyph glyph-name="guilsinglleft" unicode="&#x2039;" horiz-adv-x="637" 
d="M562 177h-273l-214 424l214 423h273l-228 -423z" />
    <glyph glyph-name="guilsinglright" unicode="&#x203a;" horiz-adv-x="637" 
d="M75 177l229 424l-229 423h274l213 -423l-213 -424h-274z" />
    <glyph glyph-name="fi" unicode="&#xf001;" horiz-adv-x="1245" 
d="M106 949h-75v191h75v45q0 129 101 201q156 109 475 109q202 0 456 -52l-47 -187q-184 40 -301 40q-250 0 -250 -110v-46h612q-13 -25 -14 -68v-1004q1 -40 14 -68h-462q13 26 14 68v881h-164v-881q1 -41 14 -68h-462q13 23 14 69v880z" />
    <glyph glyph-name="fl" unicode="&#xf002;" horiz-adv-x="1252" 
d="M106 949h-75v191h75v86q0 122 64 180q100 89 289 89q55 0 140 -9q119 -12 157 -12q7 0 33 1l377 20q-13 -23 -14 -68v-1359q1 -41 14 -68h-462q13 25 14 68v1211q-47 17 -94 17q-84 0 -84 -96v-60h108v-191h-108v-881q1 -41 14 -68h-462q13 23 14 69v880z" />
    <glyph glyph-name="daggerdbl" unicode="&#x2021;" horiz-adv-x="1201" 
d="M811 942h263q33 0 57 7v-252q-24 7 -57 7h-263v-234h263q32 0 57 7v-252q-24 7 -57 7h-263v-523q0 -41 8 -64h-435q8 23 8 64v523h-264q-33 0 -57 -7v252q25 -7 57 -7h264v234h-264q-33 0 -57 -7v252q24 -7 57 -7h264v359q0 41 -8 64h435q-8 -23 -8 -64v-359z" />
    <glyph glyph-name="periodcentered" unicode="&#x2219;" horiz-adv-x="655" 
d="M326 819q116 0 179 -68q55 -59 55 -151q0 -91 -55 -150q-63 -68 -178 -68q-116 0 -176 68q-55 62 -55 153q0 97 63 156t167 60z" />
    <glyph glyph-name="quotesinglbase" unicode="&#x201a;" horiz-adv-x="655" 
d="M263 424l314 -151l-287 -573l-259 123z" />
    <glyph glyph-name="quotedblbase" unicode="&#x201e;" horiz-adv-x="1126" 
d="M263 424l314 -151l-287 -573l-259 123zM734 424l314 -151l-287 -573l-259 123z" />
    <glyph glyph-name="perthousand" unicode="&#x2030;" horiz-adv-x="2674" 
d="M442 1389q152 0 260 -95q121 -108 121 -281q0 -75 -32.5 -148t-88.5 -122q-50 -45 -120 -71.5t-140 -26.5q-144 0 -255 97q-119 103 -119 275q0 178 120 278q109 92 254 94zM443 1233q-98 0 -98 -216q0 -103 26.5 -159.5t73.5 -56.5q46 0 73.5 59.5t27.5 161.5
q0 98 -27.5 154t-75.5 57zM523 0l600 1365h191l-600 -1365h-191zM1388 719q152 0 259 -95q122 -108 122 -281q0 -74 -32.5 -147t-88.5 -122q-50 -45 -120.5 -71.5t-139.5 -26.5q-144 0 -255 96q-119 104 -119 276q0 177 120 277q109 92 254 94zM1389 563q-98 0 -98 -216
q0 -102 26.5 -158.5t73.5 -56.5q46 0 73.5 59.5t27.5 160.5q0 98 -27.5 154t-75.5 57zM2225 719q152 0 260 -95q121 -108 121 -281q0 -74 -32.5 -147t-88.5 -122q-50 -45 -120 -71.5t-140 -26.5q-144 0 -255 96q-119 104 -119 276q0 177 120 277q109 92 254 94zM2226 563
q-98 0 -98 -216q0 -102 26.5 -158.5t73.5 -56.5q46 0 73.5 59.5t27.5 160.5q0 98 -27.5 154t-75.5 57z" />
    <glyph glyph-name="Acircumflex" unicode="&#xc2;" horiz-adv-x="1279" 
d="M311 345l-96 -277q-12 -35 -12 -52q0 -4 3 -16h-247q23 24 39 68l429 1229q13 36 13 53q0 4 -2 15h387q-1 -9 -1 -12q0 -16 14 -56l439 -1229q17 -44 43 -68h-526q2 12 2 16q0 20 -10 52l-90 277h-385zM384 551h244l-119 395zM228 1488l297 314h207l291 -314h-254
l-145 181l-147 -181h-249z" />
    <glyph glyph-name="Ecircumflex" unicode="&#xca;" horiz-adv-x="1044" 
d="M98 1365h875v-200q-33 9 -71 9h-329v-392h327q47 0 73 8v-208q-26 9 -71 9h-329v-385h318q56 0 82 9v-215h-875q13 25 14 68v1229q-1 45 -14 68zM138 1488l297 314h207l291 -314h-254l-145 181l-147 -181h-249z" />
    <glyph glyph-name="Aacute" unicode="&#xc1;" horiz-adv-x="1279" 
d="M311 345l-96 -277q-12 -35 -12 -52q0 -4 3 -16h-247q23 24 39 68l429 1229q13 36 13 53q0 4 -2 15h387q-1 -9 -1 -12q0 -16 14 -56l439 -1229q17 -44 43 -68h-526q2 12 2 16q0 20 -10 52l-90 277h-385zM384 551h244l-119 395zM515 1468l143 370h298l-251 -370h-190z" />
    <glyph glyph-name="Edieresis" unicode="&#xcb;" horiz-adv-x="1044" 
d="M98 1365h875v-200q-33 9 -71 9h-329v-392h327q47 0 73 8v-208q-26 9 -71 9h-329v-385h318q56 0 82 9v-215h-875q13 25 14 68v1229q-1 45 -14 68zM277 1739q205 0 205 -125q0 -67 -41 -97q-57 -41 -170 -41q-104 0 -158 33t-54 97q0 132 218 133zM782 1738q205 0 205 -125
q0 -67 -41 -97q-57 -41 -170 -41q-104 0 -158 33t-54 97q0 132 218 133z" />
    <glyph glyph-name="Egrave" unicode="&#xc8;" horiz-adv-x="1044" 
d="M98 1365h875v-200q-33 9 -71 9h-329v-392h327q47 0 73 8v-208q-26 9 -71 9h-329v-385h318q56 0 82 9v-215h-875q13 25 14 68v1229q-1 45 -14 68zM457 1467l-247 372h295l137 -372h-185z" />
    <glyph glyph-name="Iacute" unicode="&#xcd;" 
d="M106 1365h489q-13 -24 -14 -68v-1229q1 -44 14 -68h-489q13 24 14 68v1229q-1 44 -14 68zM226 1468l143 370h298l-251 -370h-190z" />
    <glyph glyph-name="Icircumflex" unicode="&#xce;" 
d="M107 1365h489q-13 -24 -14 -68v-1229q1 -44 14 -68h-489q13 24 14 68v1229q-1 44 -14 68zM-19 1488l270 314h207l264 -314h-255l-117 181l-120 -181h-249z" />
    <glyph glyph-name="Idieresis" unicode="&#xcf;" 
d="M106 1365h489q-13 -24 -14 -68v-1229q1 -44 14 -68h-489q13 24 14 68v1229q-1 44 -14 68zM125 1739q184 0 184 -125q0 -138 -190 -138t-190 131t196 132zM589 1738q184 0 184 -125q0 -138 -190 -138q-93 0 -141.5 33t-48.5 98q0 131 196 132z" />
    <glyph glyph-name="Igrave" unicode="&#xcc;" 
d="M107 1365h489q-13 -24 -14 -68v-1229q1 -44 14 -68h-489q13 24 14 68v1229q-1 44 -14 68zM273 1467l-247 372h295l137 -372h-185z" />
    <glyph glyph-name="Oacute" unicode="&#xd3;" horiz-adv-x="1565" 
d="M782 1390q303 0 490 -138q238 -175 238 -569q0 -366 -206 -544q-191 -164 -539 -164q-238 0 -378 72q-182 93 -266 284q-66 150 -66 365q0 112 27.5 223t74.5 186q175 281 625 285zM782 1198q-127 0 -186.5 -122t-59.5 -384t56 -392q56 -132 191 -132q127 0 186.5 122
t59.5 385q0 266 -56 392q-57 128 -191 131zM603 1468l143 370h298l-251 -370h-190z" />
    <glyph glyph-name="Ocircumflex" unicode="&#xd4;" horiz-adv-x="1565" 
d="M782 1390q303 0 490 -138q238 -175 238 -569q0 -366 -206 -544q-191 -164 -539 -164q-238 0 -378 72q-182 93 -266 284q-66 150 -66 365q0 112 27.5 223t74.5 186q175 281 625 285zM782 1198q-127 0 -186.5 -122t-59.5 -384t56 -392q56 -132 191 -132q127 0 186.5 122
t59.5 385q0 266 -56 392q-57 128 -191 131zM385 1488l297 314h207l291 -314h-254l-145 181l-147 -181h-249z" />
    <glyph glyph-name="apple" unicode="&#xf000;" horiz-adv-x="1365" 
d="M983 1416q-2 -150 -86.5 -249t-217.5 -106q5 149 85.5 243t218.5 112zM1276 935q-88 -67 -126.5 -133.5t-38.5 -151.5q0 -102 54 -182.5t150 -122.5q-66 -161 -140 -257q-109 -143 -204 -143q-49 0 -132 38q-50 23 -106 23q-51 0 -75.5 -4.5t-71.5 -23.5
q-82 -35 -125 -35q-52 0 -111 44t-112 123q-172 255 -172 524q0 202 122 335q99 108 259 108q65 0 173 -41q57 -21 86 -21q30 0 119 33q91 33 155 33q190 0 296 -146z" />
    <glyph glyph-name="Ograve" unicode="&#xd2;" horiz-adv-x="1565" 
d="M782 1390q303 0 490 -138q238 -175 238 -569q0 -366 -206 -544q-191 -164 -539 -164q-238 0 -378 72q-182 93 -266 284q-66 150 -66 365q0 112 27.5 223t74.5 186q175 281 625 285zM782 1198q-127 0 -186.5 -122t-59.5 -384t56 -392q56 -132 191 -132q127 0 186.5 122
t59.5 385q0 266 -56 392q-57 128 -191 131zM718 1467l-247 372h295l137 -372h-185z" />
    <glyph glyph-name="Uacute" unicode="&#xda;" horiz-adv-x="1394" 
d="M1317 1365q-13 -29 -14 -68v-808q0 -197 -104 -324q-156 -190 -509 -190q-279 0 -435 133q-82 69 -119 165.5t-37 239.5v784q-1 43 -14 68h489q-13 -27 -14 -68v-818q0 -140 63 -207q70 -76 196 -76q98 0 177 55q53 37 77 96.5t24 153.5v796q-1 46 -14 68h234zM655 1468
l143 370h298l-251 -370h-190z" />
    <glyph glyph-name="Ucircumflex" unicode="&#xdb;" horiz-adv-x="1394" 
d="M1317 1365q-13 -29 -14 -68v-808q0 -197 -104 -324q-156 -190 -509 -190q-279 0 -435 133q-82 69 -119 165.5t-37 239.5v784q-1 43 -14 68h489q-13 -27 -14 -68v-818q0 -140 63 -207q70 -76 196 -76q98 0 177 55q53 37 77 96.5t24 153.5v796q-1 46 -14 68h234zM354 1488
l297 314h207l291 -314h-254l-145 181l-147 -181h-249z" />
    <glyph glyph-name="Ugrave" unicode="&#xd9;" horiz-adv-x="1394" 
d="M1317 1365q-13 -29 -14 -68v-808q0 -197 -104 -324q-156 -190 -509 -190q-279 0 -435 133q-82 69 -119 165.5t-37 239.5v784q-1 43 -14 68h489q-13 -27 -14 -68v-818q0 -140 63 -207q70 -76 196 -76q98 0 177 55q53 37 77 96.5t24 153.5v796q-1 46 -14 68h234zM701 1467
l-247 372h295l137 -372h-185z" />
    <glyph glyph-name="dotlessi" unicode="&#x131;" horiz-adv-x="647" 
d="M93 1140h462q-13 -25 -14 -68v-1004q1 -40 14 -68h-462q13 26 14 68v1004q-1 46 -14 68z" />
    <glyph glyph-name="circumflex" unicode="&#x2c6;" horiz-adv-x="1024" 
d="M142 1254l270 355h207l264 -355h-255l-117 204l-120 -204h-249z" />
    <glyph glyph-name="tilde" unicode="&#x2dc;" horiz-adv-x="1024" 
d="M178 1286v252q105 44 179 44q69 0 200 -32q132 -33 174 -33q63 0 115 35v-246q-77 -39 -133 -39q-34 0 -60.5 5t-152.5 35q-97 23 -173 23q-72 0 -149 -44z" />
    <glyph glyph-name="macron" unicode="&#x2c9;" horiz-adv-x="1024" 
d="M119 1276v238h787v-238h-787z" />
    <glyph glyph-name="breve" unicode="&#x2d8;" horiz-adv-x="1024" 
d="M671 1596h204q-3 -114 -61 -201q-107 -159 -311 -159q-119 0 -210 64q-67 47 -99 113.5t-44 182.5h206q1 -58 28 -92q43 -53 120 -53q68 0 113 39t54 106z" />
    <glyph glyph-name="dotaccent" unicode="&#x2d9;" horiz-adv-x="1024" 
d="M519 1525q205 0 205 -125q0 -67 -41 -97q-57 -41 -170 -41q-104 0 -158 33t-54 98q0 131 218 132z" />
    <glyph glyph-name="ring" unicode="&#x2da;" horiz-adv-x="1024" 
d="M510 1685q97 0 165 -68q66 -67 66 -162t-67 -162t-163 -67t-160 66q-68 70 -68 165q0 93 66.5 160t160.5 68zM512 1557q-43 0 -74 -30t-31 -72q0 -43 30.5 -73t74.5 -30q45 0 76 29.5t31 72.5t-31 72.5t-76 30.5z" />
    <glyph glyph-name="cedilla" unicode="&#xb8;" horiz-adv-x="1024" 
d="M392 -416l80 305h285l-176 -305h-189z" />
    <glyph glyph-name="hungarumlaut" unicode="&#x2dd;" horiz-adv-x="1024" 
d="M177 1272l128 333h284l-232 -333h-180zM573 1272l128 333h284l-233 -333h-179z" />
    <glyph glyph-name="ogonek" unicode="&#x2db;" horiz-adv-x="1024" 
d="M974 -180l12 -196q-111 -56 -220 -56q-113 0 -182 79q-55 65 -55 153q0 82 68 200h199q-61 -66 -61 -142q0 -43 24.5 -70t62.5 -27q64 0 152 59z" />
    <glyph glyph-name="caron" unicode="&#x2c7;" horiz-adv-x="1024" 
d="M883 1609l-270 -355h-207l-264 355h254l118 -204l120 204h249z" />
    <glyph glyph-name="glyph226" 
 />
    <glyph glyph-name="glyph227" 
 />
    <glyph glyph-name="glyph228" 
 />
    <glyph glyph-name="glyph229" 
 />
    <glyph glyph-name="glyph230" 
 />
    <glyph glyph-name="glyph231" 
 />
    <glyph glyph-name="glyph232" 
 />
    <glyph glyph-name="glyph233" 
 />
    <glyph glyph-name="glyph234" 
 />
    <glyph glyph-name="glyph235" 
 />
    <glyph glyph-name="glyph236" 
 />
    <glyph glyph-name="glyph237" 
 />
    <glyph glyph-name="glyph238" 
 />
    <glyph glyph-name="glyph239" 
 />
    <glyph glyph-name="glyph240" 
 />
    <glyph glyph-name="glyph241" 
 />
    <glyph glyph-name="glyph242" 
 />
    <glyph glyph-name="glyph243" 
 />
    <glyph glyph-name="glyph244" 
 />
    <glyph glyph-name="glyph245" 
 />
    <glyph glyph-name="glyph246" 
 />
    <glyph glyph-name="glyph247" 
 />
    <glyph glyph-name="glyph248" 
 />
    <glyph glyph-name="glyph249" 
 />
    <glyph glyph-name="glyph250" 
 />
    <glyph glyph-name="glyph251" 
 />
    <glyph glyph-name="glyph252" 
 />
    <glyph glyph-name="glyph253" 
 />
    <glyph glyph-name="glyph254" 
 />
    <glyph glyph-name="glyph255" 
 />
    <glyph glyph-name="glyph256" 
 />
    <glyph glyph-name="glyph257" 
 />
    <glyph glyph-name="nbspace" unicode="&#xa0;" 
 />
    <glyph glyph-name="brokenbar" unicode="&#xa6;" horiz-adv-x="1024" 
d="M286 1365h451v-754h-451v754zM286 314h451v-655h-451v655z" />
    <glyph glyph-name="sfthyphen" unicode="&#xad;" horiz-adv-x="551" 
d="M0 446l83 306h468l-81 -306h-470z" />
    <glyph glyph-name="overscore" unicode="&#xaf;" horiz-adv-x="1024" 
d="M0 1694h1024v-250h-1024v250z" />
    <glyph glyph-name="twosuperior" unicode="&#xb2;" horiz-adv-x="834" 
d="M91 710q147 78 228.5 182.5t81.5 215.5q0 121 -113 121q-65 0 -162 -43l-25 160q166 33 287 33q160 0 245 -69q83 -67 83 -171q0 -157 -180 -296q-47 -37 -158 -99h271q39 0 48 1.5t29 12.5v-212h-650q15 25 15 51v113z" />
    <glyph glyph-name="threesuperior" unicode="&#xb3;" horiz-adv-x="834" 
d="M124 735q101 -61 166 -61q51 0 81.5 30t30.5 81q0 54 -23 85t-63 31q-18 0 -56 -7v163q35 -5 51 -5q40 0 63 24.5t23 65.5q0 44 -28 69t-77 25q-55 0 -155 -49l-19 154q122 38 252 38q155 0 245 -55q97 -59 97 -171q0 -71 -36 -111.5t-116 -59.5q73 -16 109 -45
q61 -50 61 -143q0 -122 -99 -193q-97 -70 -279 -70q-128 0 -269 48z" />
    <glyph glyph-name="middot" unicode="&#xb7;" horiz-adv-x="655" 
d="M326 819q116 0 179 -68q55 -59 55 -151q0 -91 -55 -150q-63 -68 -178 -68q-116 0 -176 68q-55 62 -55 153q0 97 63 156t167 60z" />
    <glyph glyph-name="onesuperior" unicode="&#xb9;" horiz-adv-x="834" 
d="M282 1142l-134 -51v110q0 26 -14 44l483 140q-15 -32 -15 -59v-729q0 -22 10 -51h-343q13 25 13 51v545z" />
    <glyph glyph-name="onequarter" unicode="&#xbc;" horiz-adv-x="1993" 
d="M254 1142l-134 -51v110q0 26 -14 44l483 140q-15 -32 -15 -59v-729q0 -22 10 -51h-343q13 25 13 51v545zM561 0l609 1365h207l-610 -1365h-206zM1513 145h-339v183q15 12 33 36l304 411q20 28 23 44h299q-12 -25 -12 -51v-441h45q30 0 56 8v-193q-25 3 -64 3h-37v-94
q0 -25 11 -51h-331q12 25 12 51v94zM1523 327v249l-179 -249h179z" />
    <glyph glyph-name="onehalf" unicode="&#xbd;" horiz-adv-x="1993" 
d="M254 1142l-134 -51v110q0 26 -14 44l483 140q-15 -32 -15 -59v-729q0 -22 10 -51h-343q13 25 13 51v545zM561 0l609 1365h207l-610 -1365h-206zM1222 164q147 78 228.5 182.5t81.5 215.5q0 121 -113 121q-66 0 -162 -43l-25 160q166 33 287 33q160 0 245 -69
q83 -67 83 -171q0 -157 -180 -296q-47 -37 -158 -99h271q39 0 48 1.5t29 12.5v-212h-650q15 25 15 51v113z" />
    <glyph glyph-name="threequarters" unicode="&#xbe;" horiz-adv-x="1993" 
d="M124 735q101 -61 166 -61q51 0 81.5 30t30.5 81q0 54 -23 85t-63 31q-17 0 -56 -7v163q34 -5 51 -5q40 0 63 24.5t23 65.5q0 44 -28 69t-77 25q-54 0 -155 -48l-19 153q123 38 252 38q155 0 245 -55q97 -59 97 -171q0 -71 -36 -111.5t-116 -59.5q73 -16 109 -45
q61 -50 61 -143q0 -122 -99 -193q-97 -70 -279 -70q-129 0 -269 48zM601 0l610 1365h207l-610 -1365h-207zM1541 145h-340v183q15 12 33 36l305 411q21 27 23 44h299q-12 -25 -12 -51v-441h44q31 0 57 8v-193q-25 3 -64 3h-37v-94q0 -25 12 -51h-332q12 25 12 51v94z
M1551 327v249l-180 -249h180z" />
    <glyph glyph-name="Eth" unicode="&#xd0;" horiz-adv-x="1436" 
d="M112 586h-138v204h138v507q-1 46 -14 68h577q324 0 501 -144q206 -169 206 -527q0 -342 -179 -528q-161 -166 -408 -166h-697q13 26 14 68v518zM573 586v-380h52q136 0 201 111q75 130 75 363q0 252 -95 386q-66 92 -189 92h-44v-368h138v-204h-138z" />
    <glyph glyph-name="multiply" unicode="&#xd7;" horiz-adv-x="1201" 
d="M601 506l-307 -307l-177 177l307 307l-307 307l177 176l307 -307l307 307l176 -176l-307 -307l307 -308l-176 -176z" />
    <glyph glyph-name="Yacute" unicode="&#xdd;" horiz-adv-x="1047" 
d="M290 565l-312 732q-18 42 -39 68h524q-3 -13 -3 -16q0 -18 13 -52l177 -444l192 444q16 37 16 59q0 2 -1 9h251q-20 -26 -39 -68l-318 -723v-505q1 -46 14 -69h-489q13 24 14 68v497zM427 1468l143 370h298l-251 -370h-190z" />
    <glyph glyph-name="Thorn" unicode="&#xde;" horiz-adv-x="1208" 
d="M573 289v-221q0 -25 19 -68h-494q13 27 14 68v1229q-1 45 -14 68h489q-12 -23 -13 -68v-136h141q117 0 190 -18t136 -61q154 -107 154 -346q0 -244 -156 -354q-74 -51 -156.5 -72t-214.5 -21h-95zM573 494h35q71 0 96 50t25 189q0 134 -29 186q-27 49 -88 49h-39v-474z
" />
    <glyph glyph-name="eth" unicode="&#xf0;" horiz-adv-x="1236" 
d="M581 1265l-119 -138l-86 74l90 103q-69 14 -131 14h-21l77 168q116 -4 213 -23l141 162l85 -74l-104 -120q164 -55 259 -161q132 -149 170 -367q22 -132 22 -274q0 -277 -84 -418q-70 -119 -185.5 -175t-291.5 -56q-124 0 -210.5 26t-160.5 85q-186 149 -186 447
q0 266 158 422q135 133 318 133q110 0 185 -58q-19 169 -139 230zM618 908q-59 0 -81.5 -80t-22.5 -291q0 -196 22 -292q18 -81 82 -81q59 0 81.5 80.5t22.5 289.5q0 213 -22 292.5t-82 81.5z" />
    <glyph glyph-name="yacute" unicode="&#xfd;" horiz-adv-x="1001" 
d="M373 -2l-406 1073q-17 43 -39 69h516q-1 -7 -1 -9q0 -21 13 -60l159 -481l179 482q15 44 16 68h251q-22 -25 -41 -68l-533 -1303q-17 -44 -17 -69h-262q22 24 45 68zM390 1254l143 370h298l-251 -370h-190z" />
    <glyph glyph-name="thorn" unicode="&#xfe;" horiz-adv-x="1219" 
d="M534 65v-297q1 -45 14 -68h-462q13 26 14 68v1636q-1 41 -14 68h451q-13 -23 -14 -68v-349q86 119 253 119q179 0 274 -143q111 -166 111 -468q0 -282 -103 -431q-50 -72 -131.5 -112t-179.5 -40q-137 0 -213 85zM612 934q-27 1 -49.5 -21.5t-28.5 -57.5q-9 -50 -14 -288
q5 -232 14 -287q6 -35 27.5 -57t49.5 -22q53 0 74 79.5t21 283.5q0 210 -20 288.5t-74 81.5z" />
    <glyph glyph-name="Cacute" unicode="&#x106;" horiz-adv-x="1219" 
d="M567 1468l143 370h298l-251 -370h-190zM1192 1320v-293q-192 152 -341 152q-147 0 -231 -130t-84 -359q0 -136 24 -230t76 -160q41 -53 101.5 -83t123.5 -30q140 0 331 145v-283q-199 -74 -423 -74q-363 0 -540 182q-174 180 -174 538q0 242 83 383q57 97 155 171
q96 73 220.5 107t298.5 34q203 0 380 -70z" />
    <glyph glyph-name="cacute" unicode="&#x107;" horiz-adv-x="1028" 
d="M444 1254l143 370h298l-251 -370h-190zM981 31q-174 -52 -317 -52q-265 0 -425 144q-180 161 -180 446q0 295 196 463q165 142 422 142q132 0 304 -48v-256q-80 65 -124.5 85t-106.5 20q-236 0 -236 -385q0 -402 232 -402q107 0 235 87v-244z" />
    <glyph glyph-name="Ccaron" unicode="&#x10c;" horiz-adv-x="1219" 
d="M1144 1802l-297 -314h-207l-291 314h254l145 -181l147 181h249zM1192 1320v-293q-192 152 -341 152q-147 0 -231 -130t-84 -359q0 -136 24 -230t76 -160q41 -53 101.5 -83t123.5 -30q140 0 331 145v-283q-199 -74 -423 -74q-363 0 -540 182q-174 180 -174 538
q0 242 83 383q57 97 155 171q96 73 220.5 107t298.5 34q203 0 380 -70z" />
    <glyph glyph-name="ccaron" unicode="&#x10d;" horiz-adv-x="1028" 
d="M967 1609l-270 -355h-207l-264 355h254l118 -204l120 204h249zM981 31q-174 -52 -317 -52q-265 0 -425 144q-180 161 -180 446q0 295 196 463q165 142 422 142q132 0 304 -48v-256q-80 65 -124.5 85t-106.5 20q-236 0 -236 -385q0 -402 232 -402q107 0 235 87v-244z" />
    <glyph glyph-name="dmacron" unicode="&#x111;" horiz-adv-x="1225" 
d="M691 1243h-170v160h170v7q-1 34 -14 62h462q-13 -30 -14 -62v-7h100v-160h-100v-1175q1 -39 14 -68h-438v86q-57 -58 -113.5 -82t-137.5 -24q-137 0 -218 76q-83 77 -128 217t-45 321q0 277 117 439q101 141 287 141q137 0 228 -80v149zM613 953q-56 0 -77.5 -80
t-21.5 -288q0 -186 21 -284q16 -79 77 -79q56 0 77.5 79.5t21.5 285.5q0 207 -21 285.5t-77 80.5z" />
    <glyph glyph-name="Gbreve" unicode="&#x11e;" horiz-adv-x="1365" 
d="M944 1802h203q-3 -98 -65 -175q-114 -139 -334 -139q-215 0 -319 135q-47 62 -61 179h206q2 -60 47.5 -93.5t126.5 -33.5q80 0 132.5 34t63.5 93zM1241 1323v-285q-160 144 -348 144q-160 0 -251 -114q-56 -70 -81 -169t-25 -253q0 -232 62 -354q62 -124 186 -124
q35 0 63 21v493q-1 46 -14 69h469q-13 -26 -14 -69v-516q0 -45 2 -58t12 -42q-194 -57 -294 -74t-246 -17q-215 0 -349 59q-358 158 -358 623q0 370 237 567q114 96 249 132q130 34 285 34q200 0 415 -67z" />
    <glyph glyph-name="gbreve" unicode="&#x11f;" horiz-adv-x="1230" 
d="M624 1637h204q-3 -114 -61 -201q-107 -159 -311 -159q-119 0 -210 64q-67 47 -99 113.5t-44 182.5h206q1 -58 28 -92q43 -53 120 -53q68 0 113 39t54 106zM147 -162l-82 294l180 135q-102 68 -144 154t-42 226q0 185 59 289q73 128 221 191q104 44 228 44q31 0 113 -8
q61 74 61 179q0 7 -1 22h350q-13 -82 -36.5 -128t-96.5 -130q229 -143 229 -444q0 -278 -219 -410q-113 -69 -236 -72q-76 -2 -95.5 -6t-53.5 -23l-176 -98q230 45 291 54t141 9q182 0 291 -63q44 -26 70 -70.5t26 -94.5q0 -62 -38 -113.5t-105 -79.5q-146 -62 -377 -62
q-121 0 -237 18.5t-321 69.5v43q181 -45 332 -45q177 0 177 77q0 43 -53.5 69t-141.5 26q-145 0 -314 -53zM620 964q-55 0 -78.5 -65.5t-23.5 -218.5q0 -124 14 -203q8 -44 33 -71.5t58 -27.5q57 0 80.5 69t23.5 236q0 151 -24.5 215t-82.5 66z" />
    <glyph glyph-name="Idot" unicode="&#x130;" 
d="M357 1739q205 0 205 -125q0 -67 -41 -97q-57 -41 -170 -41q-104 0 -158 33t-54 98q0 131 218 132zM106 1365h489q-13 -24 -14 -68v-1229q1 -44 14 -68h-489q13 24 14 68v1229q-1 44 -14 68z" />
    <glyph glyph-name="Lslash" unicode="&#x141;" horiz-adv-x="941" 
d="M112 424l-93 -62l-114 169l207 139v627q-1 44 -14 68h488q-12 -24 -13 -68v-343l203 138l115 -170l-318 -214v-502h285q68 1 96 15v-221h-856q13 24 14 68v356z" />
    <glyph glyph-name="lslash" unicode="&#x142;" horiz-adv-x="715" 
d="M575 1014l101 68l114 -169l-215 -145v-700q1 -41 14 -68h-462q13 25 14 68v455l-98 -66l-114 169l212 143v635q-1 44 -14 68h462q-13 -23 -14 -68v-390z" />
    <glyph glyph-name="Scedilla" unicode="&#x15e;" horiz-adv-x="1075" 
d="M300 -409l80 305h285l-176 -305h-189zM27 88l69 274q74 -59 110 -83q118 -81 240 -81q75 0 119 35q50 38 50 102q0 69 -62 106q-26 15 -196 85q-185 76 -251 173q-69 102 -69 233q0 136 72 246q138 212 478 212q197 0 388 -85l-59 -260q-188 142 -317 142
q-59 0 -96.5 -33t-37.5 -85q0 -55 38.5 -81t228.5 -99q195 -75 260 -185q55 -92 55 -218q0 -155 -70 -278q-133 -233 -494 -233q-125 0 -225.5 25t-230.5 88z" />
    <glyph glyph-name="scedilla" unicode="&#x15f;" horiz-adv-x="990" 
d="M293 -416l80 305h285l-176 -305h-189zM31 77l61 243q67 -51 108 -76q121 -74 240 -74q53 0 87 26t34 67q0 68 -121 111q-133 47 -193.5 76t-100.5 65q-97 86 -97 246q0 137 74 237q68 90 186 135q110 41 233 41q163 0 378 -68l-55 -231q-90 65 -151 90t-131 25
q-62 0 -97.5 -24.5t-35.5 -66.5q0 -47 60 -77q15 -7 189 -64q142 -47 204 -139q57 -85 57 -214q0 -216 -144 -325q-133 -101 -373 -101q-111 0 -201 21.5t-211 76.5z" />
    <glyph glyph-name="Scaron" unicode="&#x160;" horiz-adv-x="1075" 
d="M27 88l69 274q74 -59 110 -83q118 -81 240 -81q75 0 119 35q50 38 50 102q0 69 -62 106q-26 15 -196 85q-185 76 -251 173q-69 102 -69 233q0 136 72 246q138 212 478 212q197 0 388 -85l-59 -260q-188 142 -317 142q-59 0 -96.5 -33t-37.5 -85q0 -55 38.5 -81t228.5 -99
q195 -75 260 -185q55 -92 55 -218q0 -155 -70 -278q-133 -233 -494 -233q-125 0 -225.5 25t-230.5 88zM934 1802l-297 -314h-207l-291 314h254l145 -181l147 181h249z" />
    <glyph glyph-name="scaron" unicode="&#x161;" horiz-adv-x="990" 
d="M31 77l61 243q67 -51 108 -76q121 -74 240 -74q53 0 87 26t34 67q0 68 -121 111q-133 47 -193.5 76t-100.5 65q-97 86 -97 246q0 137 74 237q68 90 186 135q110 41 233 41q163 0 378 -68l-55 -231q-90 65 -151 90t-131 25q-62 0 -97.5 -24.5t-35.5 -66.5q0 -47 60 -77
q15 -7 189 -64q142 -47 204 -139q57 -85 57 -214q0 -216 -144 -325q-133 -101 -373 -101q-111 0 -201 21.5t-211 76.5zM865 1609l-270 -355h-207l-264 355h254l118 -204l120 204h249z" />
    <glyph glyph-name="Zcaron" unicode="&#x17d;" horiz-adv-x="1147" 
d="M34 0v217l550 942h-449q-65 -1 -101 -13v219h1079v-221l-544 -938h459q59 1 85 11v-217h-1079zM971 1802l-297 -314h-207l-291 314h254l145 -181l147 181h249z" />
    <glyph glyph-name="zcaron" unicode="&#x17e;" horiz-adv-x="1081" 
d="M29 0v183l505 766h-411q-48 0 -94 -11v202h1014v-201l-491 -748h406q44 0 85 11v-202h-1014zM925 1609l-270 -355h-207l-264 355h254l118 -204l120 204h249z" />
    <glyph glyph-name="franc" unicode="&#x20a3;" horiz-adv-x="1603" 
d="M96 1365h840v-202q-30 11 -70 11h-305v-393h179q47 0 79 8v-209q-28 9 -66 10h-192v-522q1 -42 13 -68h-478q12 30 13 68v1230q-1 40 -13 67zM940 799h406v-95q41 125 257 129v-309q-49 9 -83 9q-79 0 -120.5 -46t-41.5 -134v-284q1 -44 13 -69h-431q12 26 13 69v662
q-1 45 -13 68z" />
    <glyph glyph-name="minus" unicode="&#x2212;" horiz-adv-x="1201" 
d="M135 558v250h932v-250h-932z" />
    <glyph glyph-name="glyph294" horiz-adv-x="1024" 
d="M286 1739q184 0 184 -125q0 -138 -190 -138t-190 131t196 132zM750 1738q184 0 184 -125q0 -138 -190 -138q-93 0 -141.5 33t-48.5 98q0 131 196 132z" />
    <glyph glyph-name="glyph295" horiz-adv-x="1024" 
d="M412 -409l80 305h285l-176 -305h-189z" />
    <glyph glyph-name="glyph296" horiz-adv-x="1024" 
d="M519 1739q205 0 205 -125q0 -67 -41 -97q-57 -41 -170 -41q-104 0 -158 33t-54 98q0 131 218 132z" />
    <glyph glyph-name="glyph297" horiz-adv-x="1024" 
d="M705 1802h203q-3 -98 -65 -175q-114 -139 -334 -139q-215 0 -319 135q-47 62 -61 179h206q2 -60 47.5 -93.5t126.5 -33.5q80 0 132.5 34t63.5 93z" />
    <glyph glyph-name="glyph298" horiz-adv-x="1024" 
d="M510 1899q97 0 165 -68q66 -67 66 -162t-67 -162t-163 -67t-160 67q-68 69 -68 164q0 93 66.5 160t160.5 68zM512 1771q-43 0 -74 -30t-31 -72q0 -43 30.5 -73t74.5 -30q45 0 76 29.5t31 72.5t-31 72.5t-76 30.5z" />
    <glyph glyph-name="glyph299" horiz-adv-x="1024" 
d="M152 1522v223q126 43 204 43q77 0 200 -31q122 -31 172 -31q73 0 144 33v-218q-97 -37 -162 -37q-37 0 -63 5t-146 34q-93 22 -168 22q-83 0 -181 -43z" />
    <glyph glyph-name="glyph300" horiz-adv-x="1024" 
d="M114 1488l297 314h207l291 -314h-254l-145 181l-147 -181h-249z" />
    <glyph glyph-name="glyph301" horiz-adv-x="1024" 
d="M447 1467l-247 372h295l137 -372h-185z" />
    <glyph glyph-name="glyph302" horiz-adv-x="1024" 
d="M333 1468l143 370h298l-251 -370h-190z" />
    <glyph glyph-name="glyph303" horiz-adv-x="1024" 
d="M909 1802l-297 -314h-207l-291 314h254l145 -181l147 181h249z" />
    <glyph glyph-name="glyph304" horiz-adv-x="1024" 
d="M266 1739q205 0 205 -125q0 -67 -41 -97q-57 -41 -170 -41q-104 0 -158 33t-54 97q0 132 218 133zM771 1738q205 0 205 -125q0 -67 -41 -97q-57 -41 -170 -41q-104 0 -158 33t-54 97q0 132 218 133z" />
    <glyph glyph-name="glyph305" horiz-adv-x="1024" 
d="M286 1525q184 0 184 -125q0 -138 -190 -138q-93 0 -141.5 33.5t-48.5 97.5q0 131 196 132zM750 1523q184 0 184 -125q0 -138 -190 -138q-93 0 -141.5 33.5t-48.5 97.5q0 131 196 132z" />
    <glyph glyph-name="glyph306" 
 />
    </font>
</defs>
</svg>
